<svg width="16" height="17" viewBox="0 0 16 17" fill="none" xmlns="http://www.w3.org/2000/svg">
<path d="M8.40003 8.50011L5.80003 5.90011C5.67781 5.77789 5.6167 5.62234 5.6167 5.43345C5.6167 5.24456 5.67781 5.089 5.80003 4.96678C5.92225 4.84456 6.07781 4.78345 6.2667 4.78345C6.45559 4.78345 6.61114 4.84456 6.73337 4.96678L9.80003 8.03345C9.8667 8.10011 9.91392 8.17234 9.9417 8.25011C9.96948 8.32789 9.98337 8.41123 9.98337 8.50011C9.98337 8.589 9.96948 8.67234 9.9417 8.75011C9.91392 8.82789 9.8667 8.90011 9.80003 8.96678L6.73337 12.0334C6.61114 12.1557 6.45559 12.2168 6.2667 12.2168C6.07781 12.2168 5.92225 12.1557 5.80003 12.0334C5.67781 11.9112 5.6167 11.7557 5.6167 11.5668C5.6167 11.3779 5.67781 11.2223 5.80003 11.1001L8.40003 8.50011Z" fill="#525252"/>
</svg>
