<svg width="1326" height="415" viewBox="0 0 1326 415" fill="none" xmlns="http://www.w3.org/2000/svg">
<g clip-path="url(#clip0_7341_1445)">
<rect width="1326" height="415" fill="#F4F8FB"/>
<path fill-rule="evenodd" clip-rule="evenodd" d="M749.884 163.798C701.688 188.465 657.207 220.175 617.723 258.253L747.013 376.242C769.186 355.873 793.725 338.58 819.967 324.058L749.845 163.785L749.884 163.798Z" fill="white"/>
<path fill-rule="evenodd" clip-rule="evenodd" d="M969.068 104.36C915.024 107.391 862.212 118.642 812.284 137.025L881.053 295.798C908.802 286.443 937.875 280.383 967.633 277.659L969.055 104.397L969.068 104.36Z" fill="white"/>
<path fill-rule="evenodd" clip-rule="evenodd" d="M1196.95 140.263C1189.63 137.614 1182.28 134.915 1174.89 132.454C1130.12 117.539 1084.67 108.593 1039.51 105.478L1038.51 278.347C1066.04 281.111 1093.39 286.916 1120.59 295.976L1125.59 297.642L1196.97 140.225L1196.95 140.263Z" fill="white"/>
<path fill-rule="evenodd" clip-rule="evenodd" d="M1387.72 262.754C1350.1 225.537 1306.68 193.194 1258.33 167.606L1187.13 324.705C1213.16 339.557 1237.15 357.241 1258.53 377.394L1387.71 262.792L1387.72 262.754Z" fill="white"/>
<path fill-rule="evenodd" clip-rule="evenodd" d="M36.4678 44.1396C-11.7276 68.8068 -56.2087 100.517 -95.6932 138.595L33.5971 256.584C55.7707 236.215 80.3091 218.922 106.552 204.4L36.4297 44.1269L36.4678 44.1396Z" fill="white"/>
<path fill-rule="evenodd" clip-rule="evenodd" d="M255.652 -15.2986C201.608 -12.2674 148.796 -1.01668 98.8679 17.3667L167.637 176.14C195.386 166.785 224.459 160.725 254.217 158.001L255.639 -15.2607L255.652 -15.2986Z" fill="white"/>
<path fill-rule="evenodd" clip-rule="evenodd" d="M483.538 20.6048C476.215 17.9557 468.865 15.2565 461.479 12.7959C416.706 -2.11916 371.255 -11.0654 326.097 -14.1798L325.099 158.688C352.62 161.452 379.972 167.258 407.169 176.318L412.169 177.983L483.551 20.5672L483.538 20.6048Z" fill="white"/>
<path fill-rule="evenodd" clip-rule="evenodd" d="M674.305 143.096C636.687 105.879 593.261 73.5358 544.911 47.9474L473.715 205.047C499.741 219.899 523.738 237.583 545.113 257.736L674.293 143.134L674.305 143.096Z" fill="white"/>
</g>
<defs>
<clipPath id="clip0_7341_1445">
<rect width="1326" height="415" fill="white"/>
</clipPath>
</defs>
</svg>
