<svg width="40" height="40" viewBox="0 0 40 40" fill="none" xmlns="http://www.w3.org/2000/svg">
<path d="M19.9998 21.4L15.0998 26.3C14.9165 26.4834 14.6831 26.575 14.3998 26.575C14.1165 26.575 13.8831 26.4834 13.6998 26.3C13.5165 26.1167 13.4248 25.8834 13.4248 25.6C13.4248 25.3167 13.5165 25.0834 13.6998 24.9L18.5998 20L13.6998 15.1C13.5165 14.9167 13.4248 14.6834 13.4248 14.4C13.4248 14.1167 13.5165 13.8834 13.6998 13.7C13.8831 13.5167 14.1165 13.425 14.3998 13.425C14.6831 13.425 14.9165 13.5167 15.0998 13.7L19.9998 18.6L24.8998 13.7C25.0831 13.5167 25.3165 13.425 25.5998 13.425C25.8831 13.425 26.1165 13.5167 26.2998 13.7C26.4831 13.8834 26.5748 14.1167 26.5748 14.4C26.5748 14.6834 26.4831 14.9167 26.2998 15.1L21.3998 20L26.2998 24.9C26.4831 25.0834 26.5748 25.3167 26.5748 25.6C26.5748 25.8834 26.4831 26.1167 26.2998 26.3C26.1165 26.4834 25.8831 26.575 25.5998 26.575C25.3165 26.575 25.0831 26.4834 24.8998 26.3L19.9998 21.4Z" fill="#A3A3A3"/>
</svg>
