<svg width="24" height="48" viewBox="0 0 24 48" fill="none" xmlns="http://www.w3.org/2000/svg">
<path fill-rule="evenodd" clip-rule="evenodd" d="M13.181 6.22856C10.6658 3.75649 7.79189 1.65851 4.62749 0L0 10.4115C1.71437 11.3637 3.28741 12.5251 4.72434 13.8488L13.181 6.22594V6.22856Z" fill="#BCE3FA"/>
<path fill-rule="evenodd" clip-rule="evenodd" d="M21.4864 18.7123C20.1751 15.3848 18.377 12.3059 16.1941 9.55652L7.7243 17.1794C8.8838 18.7254 9.86531 20.4231 10.6531 22.2334L21.4838 18.7123H21.4864Z" fill="#7CCDF4"/>
<path fill-rule="evenodd" clip-rule="evenodd" d="M23.9712 33.4868C23.9843 32.9767 24 32.4639 24 31.9538C24 28.8618 23.6126 25.8508 22.8667 22.9785L12.036 26.4865C12.4365 28.2549 12.6433 30.0756 12.6433 31.9538V32.2991L23.9738 33.4868H23.9712Z" fill="#00A9E2"/>
<path fill-rule="evenodd" clip-rule="evenodd" d="M20.2429 48C21.7897 44.8792 22.9099 41.4967 23.5041 37.9469L12.1735 36.7593C11.7861 38.6925 11.1789 40.5576 10.3623 42.3103L20.2402 48H20.2429Z" fill="#007BBA"/>
</svg>
