
<svg width="48" height="48" viewBox="0 0 48 48" fill="none" xmlns="http://www.w3.org/2000/svg">
<rect x="1" y="1" width="46" height="46" rx="23" fill="white"/>
<rect x="1" y="1" width="46" height="46" rx="23" stroke="#BCE3FA" stroke-width="2"/>
<path d="M23 28.175V17C23 16.7167 23.0958 16.4792 23.2875 16.2875C23.4792 16.0958 23.7167 16 24 16C24.2833 16 24.5208 16.0958 24.7125 16.2875C24.9042 16.4792 25 16.7167 25 17V28.175L29.9 23.275C30.1 23.075 30.3333 22.9792 30.6 22.9875C30.8667 22.9958 31.1 23.1 31.3 23.3C31.4833 23.5 31.5792 23.7333 31.5875 24C31.5958 24.2667 31.5 24.5 31.3 24.7L24.7 31.3C24.6 31.4 24.4917 31.4708 24.375 31.5125C24.2583 31.5542 24.1333 31.575 24 31.575C23.8667 31.575 23.7417 31.5542 23.625 31.5125C23.5083 31.4708 23.4 31.4 23.3 31.3L16.7 24.7C16.5167 24.5167 16.425 24.2875 16.425 24.0125C16.425 23.7375 16.5167 23.5 16.7 23.3C16.9 23.1 17.1375 23 17.4125 23C17.6875 23 17.925 23.1 18.125 23.3L23 28.175Z" fill="#177FAC"/>
</svg>
