<svg width="252" height="247" viewBox="0 0 252 247" fill="none" xmlns="http://www.w3.org/2000/svg">
<path fill-rule="evenodd" clip-rule="evenodd" d="M267.736 45.0807C256.748 34.2777 244.193 25.1095 230.369 17.8618L210.154 63.3599C217.643 67.521 224.515 72.5967 230.793 78.3811L267.736 45.0692V45.0807Z" fill="#177FAC1A"/>
<path fill-rule="evenodd" clip-rule="evenodd" d="M304.031 99.6251C298.303 85.084 290.447 71.629 280.911 59.6143L243.91 92.9262C248.976 99.6823 253.263 107.101 256.705 115.012L304.02 99.6251H304.031Z" fill="#177FAC1A"/>
<path fill-rule="evenodd" clip-rule="evenodd" d="M157.472 315C212.276 315 260.505 287.004 288.748 244.581L245.652 219.717C226.1 247.359 193.924 265.398 157.472 265.398C97.8996 265.398 49.613 217.065 49.613 157.506C49.613 97.9467 97.8996 49.6707 157.472 49.6707C169.661 49.6707 181.369 51.6598 192.243 55.3979L212.527 9.89984C195.388 3.49809 176.853 0 157.483 0C70.4918 0 0 70.5449 0 157.494C0 244.444 70.4919 314.989 157.472 314.989V315Z" fill="#177FAC1A"/>
<path d="M171.946 118.515C175.388 117.372 181.356 115.977 186.97 115.737C191.796 115.554 196.689 116.217 200.554 118.458L236.046 138.909C240.517 141.504 242.083 147.174 239.488 151.644L196.815 225.561C194.22 230.031 188.548 231.597 184.078 229.002L148.529 208.483C148.289 208.357 147.145 208.357 145.567 208.425C142.125 208.551 138.078 209.386 134.522 210.3C129.571 211.569 124.505 208.608 123.179 203.601C122.516 201.006 122.996 198.411 124.322 196.296L166.812 122.676C168.024 120.63 169.888 119.235 171.946 118.515ZM187.702 134.394C185.473 134.451 183.06 134.817 181.059 135.297L149.489 189.906C152.565 190.203 155.469 190.992 157.882 192.375L185.347 208.242L218.723 150.432L191.201 134.565C190.778 134.325 189.394 134.325 187.702 134.382V134.394Z" fill="#177FAC1A"/>
<path d="M164.987 125.997C164.381 124.008 163.535 121.768 162.449 119.721C161.66 118.27 160.939 117.069 160.516 116.829L133.051 100.962L99.6748 158.772L127.14 174.639C129.552 176.022 131.668 178.08 133.417 180.618L164.987 126.009V125.997ZM178.982 111.148C181.578 116.04 183.327 121.951 184.048 125.506C184.471 127.621 184.174 129.907 183.019 131.965L140.529 205.585C139.386 207.757 137.328 209.563 134.732 210.226C129.781 211.609 124.647 208.717 123.264 203.767C122.235 200.212 120.908 196.222 119.399 193.273C118.678 191.89 118.072 190.918 117.764 190.735L82.272 170.215C77.8698 167.677 76.2919 162.007 78.8875 157.537L121.56 83.5516C124.155 79.0818 129.827 77.5728 134.298 80.1678L169.847 100.619C173.654 102.848 176.661 106.769 178.96 111.113L178.982 111.148Z" fill="#177FAC1A"/>
</svg>
