<svg width="275" height="790" viewBox="0 0 275 790" fill="none" xmlns="http://www.w3.org/2000/svg">
<path fill-rule="evenodd" clip-rule="evenodd" d="M95.9723 759.202C97.9165 756.259 99.4248 753.037 100.446 749.613L89.3407 747.067C88.7347 748.932 87.8962 750.698 86.8725 752.362L95.9749 759.201L95.9723 759.202Z" fill="#177FAC"/>
<path fill-rule="evenodd" clip-rule="evenodd" d="M85.3119 769.746C88.3264 767.821 91.0036 765.466 93.2836 762.797L84.1787 755.945C82.8836 757.38 81.4055 758.668 79.7798 759.788L85.3114 769.743L85.3119 769.746Z" fill="#177FAC"/>
<path fill-rule="evenodd" clip-rule="evenodd" d="M71.2876 775.016C71.7908 774.931 72.297 774.849 72.7976 774.751C75.8324 774.158 78.7133 773.201 81.3893 771.918L75.8705 761.961C74.2117 762.693 72.4644 763.245 70.621 763.605L70.2821 763.671L71.2881 775.019L71.2876 775.016Z" fill="#177FAC"/>
<path fill-rule="evenodd" clip-rule="evenodd" d="M56.3289 774.139C59.6883 775.059 63.2227 775.51 66.8206 775.413L65.8146 764.065C63.843 764.055 61.896 763.816 60.0193 763.351L56.3284 774.136L56.3289 774.139Z" fill="#177FAC"/>
<path fill-rule="evenodd" clip-rule="evenodd" d="M185.653 115.189C183.675 112.209 181.272 109.574 178.563 107.342L171.874 116.568C173.331 117.837 174.646 119.292 175.795 120.898L185.65 115.19L185.653 115.189Z" fill="#177FAC"/>
<path fill-rule="evenodd" clip-rule="evenodd" d="M191.172 129.117C191.078 128.616 190.986 128.111 190.879 127.612C190.233 124.589 189.224 121.725 187.894 119.072L178.037 124.768C178.798 126.413 179.381 128.15 179.774 129.987L179.846 130.325L191.174 129.117L191.172 129.117Z" fill="#177FAC"/>
<path fill-rule="evenodd" clip-rule="evenodd" d="M190.561 144.089C191.421 140.714 191.809 137.172 191.648 133.577L180.319 134.785C180.345 136.756 180.141 138.707 179.709 140.592L190.558 144.09L190.561 144.089Z" fill="#177FAC"/>
<path opacity="0.2" fill-rule="evenodd" clip-rule="evenodd" d="M-217.414 405.682C-229.883 300.145 -289.276 173.521 -210.002 102.746C-125.044 26.8967 35.2652 27.5576 114.686 109.186C188.704 185.261 81.6397 304.982 89.7354 410.814C94.6997 475.712 172.17 524.348 151.156 585.949C122.623 669.592 57.7319 773.28 -29.8276 761.3C-117.571 749.295 -116.588 621.994 -157.907 543.663C-182.494 497.052 -211.23 458.016 -217.414 405.682Z" fill="#177FAC"/>
<path fill-rule="evenodd" clip-rule="evenodd" d="M-193.59 397.245C-206.059 291.708 -265.452 165.084 -186.178 94.3086C-101.221 18.4592 59.0889 19.1201 138.51 100.749C212.528 176.824 105.463 296.544 113.559 402.377C118.523 467.274 195.994 515.91 174.98 577.512C146.446 661.154 81.5556 764.842 -6.00387 752.862C-93.7473 740.857 -92.7639 613.557 -134.083 535.226C-158.67 488.615 -187.407 449.579 -193.59 397.245Z" stroke="#177FAC" stroke-width="2"/>
</svg>
