<svg width="750" height="750" viewBox="0 0 750 750" fill="none" xmlns="http://www.w3.org/2000/svg">
<rect width="750" height="750" fill="white"/>
<path fill-rule="evenodd" clip-rule="evenodd" d="M637.591 602.244C622.572 471.124 707.398 206.041 576.989 135.134C374.697 25.1425 79.7593 178.77 99.9877 426.839C114.291 602.244 654.574 750.523 637.591 602.244Z" fill="#33A6B8"/>
<path d="M440.973 196.427C440.47 194.955 439.893 193.608 439.703 192.208C439.313 189.327 438.998 186.423 438.889 183.519C438.664 177.494 438.592 170.463 438.462 164.434C438.443 163.515 438.261 162.575 439.742 162.523C441.225 162.471 448.3 157.956 448.3 161.384C448.3 168.499 449.292 179.388 449.914 186.379C450.115 188.638 451.053 190.478 451.102 193.101C451.184 197.522 443.378 196.375 440.973 196.427Z" fill="white"/>
<path fill-rule="evenodd" clip-rule="evenodd" d="M342.322 132.178C340.769 132.312 339.218 132.545 337.664 132.565C328.028 132.687 318.391 132.752 308.755 132.873C308.177 132.88 305.6 132.887 305.023 132.895C302.495 132.929 299.967 132.967 297.439 133.011C296.257 133.032 297.075 133.068 295.894 133.114C291.691 133.278 287.491 133.574 283.29 133.789C280.932 133.909 278.572 134.004 276.221 134.198C270.075 134.705 239.935 136.276 233.789 136.786C232.339 136.906 231.507 137.267 231.627 139.052C231.897 143.075 232 217.112 232.033 221.145C232.042 222.328 232.371 222.59 233.47 222.496C237.174 222.182 264.884 220.939 268.592 220.676C272.434 220.403 276.274 220.102 280.119 219.879C285.366 219.576 290.618 219.346 295.865 219.053C296.619 219.011 297.359 218.766 298.112 218.67C301.361 218.255 304.608 217.812 307.865 217.472C311.03 217.141 314.204 216.868 317.38 216.665C324.247 216.226 331.113 215.761 337.987 215.474C344.157 215.215 350.337 215.183 356.513 215.044C362.286 214.915 368.06 214.768 373.834 214.646C380.679 214.501 387.525 214.358 394.371 214.245C403.561 214.094 412.753 213.994 421.943 213.83C426.511 213.748 431.079 213.578 435.646 213.435C439.544 213.312 443.44 213.12 447.339 213.045C455.993 212.879 464.648 212.757 473.303 212.635C483.566 212.491 493.83 212.429 504.091 212.209C511.286 212.054 529.477 211.707 536.667 211.389C537.018 211.374 537.633 210.825 537.639 210.514C537.71 207.098 537.681 133.681 537.684 130.264C537.688 128.815 536.849 127.998 535.544 127.783C534.011 127.53 532.446 127.415 530.89 127.366C525.587 127.198 509.281 126.954 503.977 126.974C484.736 127.049 465.494 127.198 446.254 127.362C444.111 127.38 441.969 127.398 439.827 127.417C432.174 127.486 424.522 127.578 416.873 127.801C412.141 127.939 407.425 128.592 402.698 128.953C396.971 129.39 391.239 129.769 385.509 130.166C383.421 130.311 381.332 130.432 379.244 130.57C373.179 130.971 367.119 131.479 361.048 131.746C354.946 132.015 348.832 132.044 342.322 132.178Z" fill="white"/>
<path fill-rule="evenodd" clip-rule="evenodd" d="M221.495 101.422C218.833 101.164 216.196 100.645 213.549 100.236C213.369 100.208 213.199 100.113 213.025 100.049C213.191 99.9788 213.352 99.8899 213.525 99.8453C213.651 99.8128 213.792 99.8417 213.926 99.8385C219.633 99.705 225.343 99.612 231.049 99.4263C237.909 99.203 244.766 98.9092 251.624 98.6283C254.25 98.5208 256.874 98.3366 259.5 98.237C263.665 98.0789 267.833 97.9724 271.999 97.8253C275.362 97.7067 278.723 97.5523 282.086 97.428C289.48 97.1546 296.875 96.8987 304.269 96.6178C307.097 96.5104 309.921 96.3222 312.748 96.2272C317.517 96.0671 322.287 95.9654 327.056 95.8135C330.553 95.7022 334.049 95.54 337.545 95.4184C341.711 95.2735 345.879 95.1592 350.045 95.0101C353.273 94.8945 356.5 94.7171 359.729 94.6182C364.9 94.4598 370.073 94.3548 375.244 94.206C379.277 94.0899 383.309 93.9355 387.341 93.8091C391.843 93.668 396.344 93.5394 400.846 93.4054C405.347 93.2713 409.849 93.1342 414.35 93.0041C419.12 92.8663 423.889 92.7372 428.659 92.6006C433.251 92.4692 437.842 92.3266 442.434 92.2008C447.605 92.0592 452.777 91.9317 457.948 91.7968C463.053 91.6636 468.158 91.5262 473.262 91.3956C478.635 91.2583 484.008 91.1281 489.38 90.9924C494.619 90.8601 499.859 90.7717 505.096 90.5754C509.093 90.4257 513.084 90.1222 517.079 89.928C517.671 89.8992 518.275 90.1837 518.871 90.1754C527.125 90.0609 535.38 89.9332 543.634 89.7823C549.811 89.6694 555.987 89.5133 562.164 89.3858C568.944 89.2457 575.724 89.0702 582.505 88.997C586.022 88.9655 588.336 90.553 589.165 93.8724C589.578 95.5262 589.361 97.3452 589.373 99.0899C589.405 103.574 589.457 108.06 589.4 112.544C589.364 115.336 589.142 118.127 589.01 120.919C588.985 121.45 588.979 121.983 588.979 122.514C588.977 128.368 589.023 134.221 588.967 140.074C588.87 150.339 588.718 160.604 588.573 170.869C588.452 179.391 588.307 187.913 588.174 196.436C588.039 205.092 587.906 213.749 587.771 222.405C587.638 230.927 587.522 239.45 587.362 247.972C587.267 253.01 587.067 258.047 586.979 263.085C586.918 266.592 587.005 270.101 586.96 273.608C586.848 282.265 586.718 290.922 586.557 299.577C586.465 304.549 586.261 309.518 586.175 314.49C586.113 318.063 586.213 321.64 586.151 325.214C586.065 330.118 585.856 335.02 585.773 339.925C585.71 343.699 585.812 347.477 585.747 351.252C585.67 355.754 585.451 360.254 585.372 364.757C585.307 368.397 585.397 372.04 585.351 375.682C585.24 384.539 585.098 393.397 584.954 402.254C584.831 409.839 584.702 417.423 584.55 425.007C584.439 430.514 584.247 436.02 584.165 441.527C584.102 445.771 584.205 450.018 584.138 454.261C584.069 458.63 583.834 462.996 583.765 467.364C583.698 471.541 583.803 475.721 583.735 479.898C583.671 483.864 583.426 487.828 583.363 491.794C583.296 496.038 583.39 500.284 583.339 504.529C583.234 513.319 583.086 522.11 582.944 530.9C582.819 538.618 582.822 546.342 582.503 554.053C582.195 561.468 583.904 568.345 587.591 574.675C591.347 581.124 595.372 587.419 599.364 593.727C603.31 599.963 606.773 606.455 608.608 613.613C609.918 618.723 610.11 624.028 608.639 629.201C608.137 630.97 605.074 643.172 607.68 646.342C611.025 650.412 615.255 652.238 620.464 652.357C625.542 652.473 630.363 651.237 635.229 650.111C641.146 648.741 647.087 647.752 653.044 649.914C656.009 650.989 658.681 652.509 660.434 655.252C660.701 655.67 661.349 656.372 659.934 656.38C656.504 656.398 653.075 656.611 649.646 656.745C642.787 657.013 635.929 657.288 629.07 657.546C625.105 657.695 621.14 657.823 617.174 657.949C612.74 658.09 608.305 658.227 603.871 658.351C598.699 658.494 593.528 658.634 588.356 658.752C581.911 658.899 575.466 659.035 569.021 659.154C561.102 659.301 553.183 659.442 545.263 659.555C534.731 659.706 524.197 659.812 513.665 659.967C506.482 660.073 499.301 660.233 492.118 660.36C490.889 660.382 489.66 660.354 488.431 660.365C473.609 660.497 458.787 660.632 443.965 660.764C442.669 660.776 441.373 660.756 440.076 660.767C424.92 660.899 409.763 661.035 394.606 661.166C393.243 661.178 391.879 661.157 390.516 661.169C375.493 661.301 360.47 661.436 345.448 661.568C344.151 661.58 342.855 661.56 341.559 661.571C326.402 661.703 311.245 661.839 296.088 661.97C294.859 661.981 293.63 661.963 292.4 661.973C277.244 662.105 262.087 662.241 246.93 662.372C245.634 662.384 244.337 662.364 243.041 662.375C227.884 662.507 212.727 662.643 197.57 662.775C196.408 662.785 195.246 662.767 194.084 662.777C178.659 662.909 163.234 663.043 147.809 663.186C147.563 663.188 147.318 663.312 147.072 663.48C147.072 663.58 146.871 663.58 146.77 663.58C146.229 663.446 145.788 663.201 145.346 663.196C142.33 663.162 139.314 663.184 136.299 663.168C136.011 663.167 135.723 663.028 135.436 662.953C135.679 662.894 135.924 662.841 136.166 662.775C142.616 661.034 149.02 659.092 155.531 657.626C159.222 656.795 163.082 656.665 166.878 656.367C170.097 656.114 173.331 656.031 176.561 655.962C177.785 655.936 177.683 655.663 177.361 654.598C176.007 650.12 174.45 645.645 173.732 641.049C173.136 637.232 173.461 633.24 173.661 629.341C173.804 626.545 174.212 623.725 174.87 621.004C175.628 617.873 176.627 614.775 177.81 611.776C180.932 603.864 186.484 597.684 192.223 591.582C195.654 587.934 198.766 583.927 201.575 579.78C203.274 577.272 204.188 574.213 204.175 571.026C204.155 566 204.219 560.973 204.158 555.947C204.069 548.497 203.912 541.047 203.765 533.596C203.646 527.62 203.462 521.645 203.374 515.669C203.211 504.667 203.159 493.663 202.939 482.663C202.821 476.811 202.315 470.966 202.23 465.114C202.158 460.142 202.597 455.162 202.523 450.19C202.419 443.123 202.037 436.06 201.816 428.994C201.791 428.188 202.149 427.373 202.143 426.564C202.031 411.138 201.829 395.714 201.773 380.288C201.706 361.635 201.809 342.981 201.741 324.328C201.686 309.103 201.38 293.879 201.385 278.655C201.39 261.956 201.649 245.258 201.747 228.559C201.803 219.087 201.707 209.615 201.774 200.143C201.826 192.826 202.035 185.51 202.154 178.194C202.19 175.96 202.136 173.725 202.163 171.49C202.288 161.158 202.449 150.826 202.552 140.494C202.604 135.311 202.509 130.127 202.577 124.945C202.64 120.107 202.831 115.271 202.962 110.435C202.978 109.852 202.971 109.268 202.975 108.685C203.105 109.331 203.279 109.972 203.359 110.624C203.908 115.092 204.453 119.56 204.966 124.032C205.151 125.646 205.261 127.269 205.373 128.891C205.652 132.934 205.909 136.978 206.181 141.022C206.58 146.954 230.815 152.398 230.869 151.75C231.083 152.371 231.312 152.988 231.51 153.615C233.305 159.292 234.43 165.09 235.186 171.006C236.258 179.403 236.346 187.815 236.345 196.248C236.334 305.886 236.344 415.525 236.287 525.163C236.286 526.935 236.831 527.638 238.432 528.101C243.687 529.621 249.092 530.171 254.452 529.604C264.59 528.531 282.767 524.966 290.748 518.337C297.124 513.041 301.664 506.562 304.361 498.853C305.416 495.838 305.657 492.506 306.014 489.291C306.34 486.352 306.632 483.349 306.388 480.42C305.973 475.448 305.176 470.504 304.443 465.562C303.847 461.541 302.995 457.556 302.463 453.527C301.687 447.654 300.931 441.768 300.476 435.863C300.095 430.912 299.732 425.893 300.112 420.962C300.889 410.888 302.462 400.908 305.242 391.151C308.213 380.723 312.355 370.77 317.507 361.252C321.34 354.171 325.731 347.42 331.01 341.32C335.102 336.591 339.355 331.997 343.669 327.469C345.506 325.54 347.719 323.974 349.695 322.172C357.209 315.32 362.712 306.872 368.39 298.559C372.822 292.071 368.04 285.403 372.907 279.254C379.316 271.156 387.181 264.736 397.399 261.913C401.156 260.874 405.023 260.209 408.86 259.485C417.009 257.948 425.268 258.042 433.487 258.332C442.027 258.633 450.143 260.785 457.435 265.499C463.444 269.382 467.805 274.829 471.521 280.766C475.865 287.706 479.97 294.801 484.006 301.926C489.197 311.087 494.235 320.335 499.302 329.565C502.027 334.529 504.712 339.516 507.351 344.526C512.826 354.922 533.712 395.865 538.718 405.92C538.905 406.296 539.135 406.651 539.345 407.015C539.537 406.559 539.872 406.11 539.9 405.644C540.203 400.463 540.462 395.279 540.725 390.096C540.998 384.712 541.267 379.327 541.529 373.943C541.803 368.291 542.075 362.639 542.332 356.986C542.61 350.865 542.881 344.743 543.136 338.621C543.416 331.897 543.677 325.172 543.942 318.448C544.082 314.884 544.217 311.321 544.343 307.758C544.484 303.792 544.612 299.827 544.747 295.861C544.88 291.963 545.025 288.065 545.146 284.166C545.291 279.531 545.419 274.895 545.551 270.259C545.687 265.489 545.829 260.72 545.951 255.95C546.095 250.309 546.228 244.669 546.353 239.028C546.496 232.583 546.639 226.138 546.753 219.692C546.903 211.237 547.007 202.781 547.166 194.326C547.263 189.22 547.5 184.117 547.544 179.011C547.611 171.483 547.514 163.954 547.579 156.425C547.621 151.588 547.838 146.752 547.95 141.915C547.962 141.429 547.789 140.939 547.702 140.451C547.289 140.749 546.816 140.991 546.474 141.356C543.859 144.152 540.555 145.15 536.834 145.294C531.112 145.514 525.712 143.827 520.224 142.658C514.967 141.539 509.684 140.287 504.295 140.93C501.093 141.313 497.918 142.271 494.846 143.309C489.89 144.983 485.173 144.475 480.479 142.466C475.926 140.517 471.414 138.449 466.774 136.73C462.597 135.183 458.165 135.198 454.115 136.965C452.138 137.827 450.153 139.677 449.161 141.592C446.841 146.071 443.338 148.155 438.527 148.946C432.18 149.99 426.584 147.857 420.941 145.54C416.358 143.659 411.823 141.541 407.075 140.215C400.737 138.447 394.913 140.366 389.66 144.146C386.357 146.523 383.244 149.257 379.689 151.164C374.921 153.723 367.97 154.091 364.208 149.869C363.549 149.13 362.88 148.244 362.64 147.317C361.691 143.644 359.313 142.853 356.011 142.472C351.256 141.923 347.762 144.481 344.313 147.241C341.121 149.797 338.144 152.64 333.804 153.439C330.359 154.073 327.121 153.622 324.067 152.309C318.887 150.083 313.805 147.615 308.765 145.085C304.256 142.823 299.438 141.696 294.6 142.62C291.483 143.215 288.548 145.153 285.73 146.825C282.312 148.852 279.258 151.519 275.769 153.395C269.767 156.622 264.389 156.695 256.702 155.435C249.014 154.175 230.469 142.161 229.541 140.93C229.412 140.759 226.547 101.912 221.495 101.422Z" fill="white"/>
<path fill-rule="evenodd" clip-rule="evenodd" d="M337.95 509.73C336.295 497.623 335.84 486.512 336.585 476.399C337.329 466.286 339.625 451.406 343.47 431.759C336.116 451.14 331.745 466.02 330.358 476.399C328.97 486.778 329.775 499.127 332.772 513.446L337.95 509.73Z" fill="#177FAC"/>
<path fill-rule="evenodd" clip-rule="evenodd" d="M446.107 363.922C453.396 363.226 458.004 364.678 459.392 368.805C461.736 375.781 444.657 385.108 438.632 384.547C436.519 382.609 457.496 377.374 455.6 370.08C455.118 368.223 452.133 367.364 446.488 367.904C445.388 368.009 444.412 367.203 444.307 366.103C444.202 365.004 445.008 364.027 446.107 363.922Z" fill="#00160A"/>
<path fill-rule="evenodd" clip-rule="evenodd" d="M482.058 550.409C481.523 549.136 482.282 541.24 486.471 533.677C493.408 521.15 523.583 516.998 534.881 505.599C549.212 491.138 543.151 474.163 542.373 472.58C542.187 472.2 542.115 471.765 541.991 471.355C542.322 471.571 542.711 471.732 542.977 472.011C547.651 476.913 550.743 482.724 552.172 489.292C553.704 496.33 554.198 503.451 550.736 510.139C549.978 511.606 548.431 512.787 547.017 513.768C542.751 516.729 521.841 524.925 515.993 526.098C510.35 527.23 505.458 529.839 500.266 531.888C497.076 533.146 495.34 536.073 492.84 538.106C490.203 540.25 489.444 542.877 489.68 546.046C489.749 546.979 489.653 547.923 489.696 548.859C489.975 554.88 483.703 554.321 482.058 550.409Z" fill="#177FAC"/>
<path fill-rule="evenodd" clip-rule="evenodd" d="M361.678 383C364.551 383 365.621 380.761 364.097 378C362.607 375.239 359.689 373 357.55 373C355.411 373 354.267 375.239 355.024 378C355.813 380.761 358.805 383 361.678 383Z" fill="#FFB61D"/>
<path fill-rule="evenodd" clip-rule="evenodd" d="M417.678 396C420.551 396 421.621 393.761 420.097 391C418.607 388.239 415.689 386 413.55 386C411.411 386 410.267 388.239 411.024 391C411.813 393.761 414.805 396 417.678 396Z" fill="#FFB61D"/>
<path fill-rule="evenodd" clip-rule="evenodd" d="M586.504 87.9965C590.022 87.9655 592.335 89.5529 593.164 92.8723C593.578 94.5262 593.361 96.3452 593.373 98.0898C593.405 102.574 593.457 107.06 593.399 111.543C593.364 114.336 593.142 117.127 593.01 119.919C592.985 120.45 592.979 120.983 592.979 121.514C592.977 127.368 593.023 133.221 592.967 139.074C592.869 149.339 592.718 159.604 592.573 169.869C592.452 178.391 592.306 186.913 592.173 195.436C592.038 204.092 591.906 212.749 591.771 221.405C591.638 229.927 591.522 238.45 591.362 246.972C591.267 252.01 591.067 257.047 590.979 262.085C590.917 265.592 591.005 269.101 590.959 272.608C590.848 281.265 590.718 289.921 590.557 298.577C590.465 303.549 590.261 308.518 590.175 313.49C590.113 317.063 590.213 320.64 590.151 324.213C590.065 329.118 589.856 334.02 589.773 338.925C589.71 342.699 589.812 346.477 589.747 350.252C589.67 354.754 589.451 359.254 589.372 363.757C589.307 367.397 589.397 371.04 589.351 374.682C589.24 383.539 589.098 392.397 588.954 401.254C588.831 408.838 588.702 416.423 588.55 424.007C588.439 429.514 588.247 435.02 588.165 440.527C588.101 444.771 588.204 449.018 588.138 453.261C588.069 457.63 587.834 461.996 587.764 466.364C587.698 470.541 587.802 474.721 587.735 478.897C587.671 482.864 587.426 486.828 587.363 490.794C587.296 495.038 587.39 499.284 587.339 503.529C587.234 512.319 587.086 521.11 586.944 529.9C586.819 537.618 586.822 545.342 586.502 553.053C586.195 560.468 587.904 567.345 591.591 573.675C595.347 580.124 599.372 586.419 603.364 592.727C607.31 598.963 610.773 605.455 612.608 612.613C613.917 617.723 614.109 623.027 612.639 628.201C612.136 629.97 609.074 642.172 611.68 645.342C615.025 649.412 619.255 651.238 624.464 651.357C629.542 651.473 634.363 650.237 639.229 649.111C645.146 647.741 651.086 646.752 657.044 648.914C660.008 649.989 662.681 651.508 664.434 654.252C664.701 654.67 665.349 655.372 663.933 655.38C660.503 655.398 657.075 655.61 653.645 655.744C646.787 656.013 639.929 656.288 633.07 656.546C629.105 656.695 625.139 656.823 621.174 656.949C616.74 657.09 612.305 657.227 607.87 657.351C602.699 657.494 597.527 657.634 592.355 657.752C585.911 657.899 579.466 658.035 573.021 658.154C565.102 658.301 557.182 658.442 549.263 658.555C538.73 658.706 528.197 658.812 517.664 658.967C510.482 659.072 503.3 659.233 496.118 659.36C494.889 659.382 493.66 659.354 492.43 659.365C477.609 659.497 462.787 659.632 447.965 659.764C446.669 659.775 445.372 659.756 444.076 659.767C428.919 659.899 413.763 660.035 398.606 660.166L394.516 660.169C379.493 660.301 364.47 660.436 349.447 660.568C348.151 660.58 346.855 660.56 345.559 660.571C330.402 660.703 315.245 660.839 300.088 660.97C298.859 660.981 297.629 660.963 296.4 660.973C281.243 661.105 266.086 661.241 250.93 661.372C249.633 661.384 248.337 661.364 247.041 661.375C231.884 661.507 216.727 661.643 201.57 661.775C200.408 661.785 199.246 661.767 198.083 661.777C182.659 661.909 167.234 662.043 151.809 662.186C151.563 662.188 151.317 662.312 151.072 662.48C151.072 662.58 150.871 662.58 150.77 662.58C150.228 662.446 149.788 662.201 149.345 662.196C146.33 662.162 143.314 662.184 140.298 662.168C140.01 662.167 139.723 662.028 139.435 661.953C139.679 661.894 139.924 661.841 140.166 661.775C146.615 660.034 153.019 658.092 159.531 656.626C163.222 655.795 167.082 655.665 170.877 655.367C174.096 655.114 177.331 655.031 180.561 654.962C181.785 654.936 181.683 654.663 181.361 653.598C180.007 649.12 178.45 644.644 177.732 640.049C177.136 636.232 177.461 632.24 177.661 628.341C177.804 625.545 178.212 622.724 178.87 620.004C179.628 616.873 180.627 613.775 181.81 610.776C184.932 602.864 190.484 596.684 196.223 590.582C199.653 586.934 202.765 582.927 205.575 578.78C207.274 576.272 208.188 573.213 208.175 570.026C208.155 565 208.219 559.973 208.158 554.947C208.069 547.497 207.912 540.047 207.764 532.596C207.646 526.62 207.462 520.645 207.374 514.669C207.211 503.667 207.159 492.663 206.938 481.663C206.821 475.811 206.315 469.966 206.23 464.114C206.158 459.142 206.597 454.162 206.523 449.19C206.418 442.123 206.037 435.06 205.816 427.994C205.79 427.188 206.149 426.373 206.143 425.564C206.031 410.138 205.829 394.713 205.773 379.288C205.706 360.635 205.808 341.981 205.741 323.328C205.686 308.103 205.38 292.879 205.384 277.655C205.389 260.956 205.649 244.258 205.747 227.559C205.803 218.087 205.706 208.615 205.773 199.143C205.825 191.826 206.035 184.51 206.154 177.194C206.19 174.96 206.136 172.724 206.163 170.49C206.288 160.158 206.449 149.826 206.552 139.494C206.604 134.311 206.509 129.127 206.576 123.945C206.639 119.107 206.831 114.271 206.962 109.434C206.978 108.852 206.971 108.268 206.975 107.685C207.105 108.331 207.278 108.972 207.359 109.624C207.908 114.092 208.453 118.56 208.966 123.032C209.151 124.646 209.26 126.269 209.372 127.891C209.651 131.934 209.909 135.978 210.181 140.022C210.58 145.954 211.011 151.884 211.378 157.818C211.686 162.798 211.961 167.781 212.181 172.765C212.487 179.689 212.741 186.615 212.99 193.542C213.151 198.042 213.351 202.544 213.382 207.046C213.548 230.647 213.671 254.249 213.795 277.85C213.823 283.234 213.846 288.619 213.789 294.003C213.693 302.995 213.534 311.986 213.396 320.978C213.266 329.5 213.15 338.023 212.986 346.545C212.905 350.713 212.71 354.878 212.601 359.045C212.554 360.809 212.603 362.576 212.591 364.341C212.46 384.055 212.264 403.769 212.217 423.484C212.196 432.81 212.437 442.138 212.602 451.464C212.681 455.9 212.851 460.334 212.998 464.768C213.116 468.332 213.241 471.896 213.402 475.458C213.651 480.977 213.911 486.496 214.208 492.012C214.441 496.326 214.712 500.639 215.012 504.949C215.387 510.346 215.778 515.743 216.228 521.135C216.398 523.177 216.658 525.221 217.066 527.227C217.204 527.906 217.791 528.675 218.392 529.05C222.193 531.415 226.135 530.144 229.286 527.79C232.938 525.062 234.519 521.054 234.677 516.597C234.928 509.53 235.09 502.456 235.093 495.384C235.122 426.201 235.159 357.017 235.093 287.833C235.05 242.787 234.841 197.741 234.715 152.694C234.713 152.046 234.815 151.398 234.869 150.75C235.083 151.371 235.312 151.988 235.51 152.614C237.305 158.291 238.43 164.09 239.185 170.006C240.258 178.403 240.345 186.815 240.345 195.248L240.333 359.706C240.327 414.525 240.315 469.344 240.287 524.163C240.286 525.935 240.83 526.638 242.431 527.101C247.687 528.621 253.092 529.171 258.452 528.604C268.59 527.531 277.767 523.966 285.748 517.337C292.124 512.041 296.663 505.562 299.361 497.853C300.416 494.838 300.657 491.506 301.014 488.291C301.34 485.352 301.632 482.349 301.387 479.42C300.973 474.448 300.176 469.504 299.443 464.562C298.847 460.541 297.995 456.556 297.463 452.527C296.686 446.654 295.93 440.768 295.476 434.863C295.094 429.912 294.732 424.893 295.112 419.962C295.888 409.888 297.461 399.908 300.241 390.151C303.213 379.723 307.355 369.77 312.507 360.252C316.34 353.171 320.731 346.42 326.01 340.32C330.102 335.591 334.355 330.997 338.668 326.468C340.506 324.54 342.718 322.974 344.695 321.172C352.209 314.32 357.712 305.872 363.39 297.559C367.822 291.071 372.04 284.403 376.907 278.254C383.316 270.156 391.18 263.736 401.398 260.913C405.156 259.874 409.022 259.209 412.86 258.485C421.009 256.948 429.268 257.042 437.487 257.332C446.027 257.633 454.142 259.785 461.435 264.499C467.443 268.382 471.805 273.829 475.521 279.766C479.864 286.706 483.969 293.801 488.006 300.926C493.197 310.087 498.235 319.335 503.302 328.565C506.027 333.529 508.712 338.516 511.351 343.526C514.647 349.786 516.538 352.229 519.199 359.045C520.957 363.549 524.068 371.985 526.195 376.147C530.437 384.449 531.173 389.924 534.271 397.631C534.906 399.209 538.244 401.14 539.009 402.898C540.434 406.171 543.333 410.912 543.543 411.277C543.735 410.82 543.872 405.11 543.899 404.644C544.202 399.463 544.462 394.279 544.725 389.096C544.998 383.712 545.267 378.327 545.528 372.943C545.803 367.291 546.075 361.639 546.332 355.986C546.61 349.865 546.88 343.743 547.135 337.621C547.416 330.897 547.677 324.172 547.941 317.448C548.081 313.884 548.216 310.321 548.343 306.757C548.484 302.792 548.612 298.827 548.747 294.861C548.88 290.963 549.024 287.065 549.146 283.166C549.291 278.531 549.418 273.895 549.55 269.259C549.686 264.489 549.828 259.72 549.95 254.95C550.095 249.309 550.228 243.669 550.353 238.027C550.495 231.583 550.639 225.138 550.753 218.692C550.903 210.237 551.007 201.781 551.166 193.326C551.262 188.22 551.499 183.117 551.544 178.011C551.61 170.483 551.513 162.954 551.579 155.425C551.621 150.588 551.838 145.752 551.95 140.915C551.961 140.429 551.789 139.939 551.702 139.451C551.289 139.749 550.815 139.991 550.474 140.356C547.859 143.152 544.555 144.15 540.834 144.294C535.112 144.514 529.712 142.827 524.224 141.658C518.967 140.539 513.683 139.287 508.295 139.93C505.093 140.313 501.918 141.271 498.845 142.309C493.89 143.983 489.173 143.475 484.479 141.466C479.926 139.517 475.414 137.449 470.774 135.73C466.597 134.183 462.165 134.198 458.115 135.965C456.138 136.827 454.153 138.677 453.161 140.592C450.841 145.071 447.338 147.155 442.527 147.946C436.179 148.99 430.584 146.857 424.94 144.54C420.358 142.659 415.823 140.541 411.075 139.215C404.737 137.447 398.912 139.366 393.659 143.146C390.357 145.522 387.244 148.257 383.689 150.164C378.921 152.723 371.97 153.091 368.207 148.869C367.549 148.13 366.88 147.244 366.64 146.317C365.691 142.644 363.313 141.853 360.01 141.472C355.255 140.923 351.762 143.48 348.313 146.241C345.12 148.797 342.144 151.64 337.804 152.439C334.359 153.073 331.121 152.622 328.066 151.309C322.887 149.083 317.805 146.615 312.765 144.085C308.256 141.823 303.438 140.696 298.6 141.62C295.483 142.215 292.548 144.153 289.73 145.825C286.312 147.852 283.257 150.519 279.769 152.395C273.767 155.622 267.322 155.757 260.701 154.435C253.833 153.063 248.177 149.712 243.419 144.712C242.361 143.601 241.498 142.303 240.57 141.072C240.441 140.901 240.453 140.622 240.4 140.394C240.59 140.491 240.809 140.554 240.964 140.69C245.977 145.067 251.708 147.776 258.352 148.735C267.952 150.119 276.846 148.513 284.846 142.931C287.082 141.371 288.914 139.241 291.099 137.594C294.543 134.999 298.614 135.122 302.596 135.604C310.067 136.507 316.552 140.395 323.542 142.76C329.589 144.807 335.798 146.372 342.195 143.885C344.445 143.01 346.329 141.781 347.722 139.721C350.166 136.107 355.46 134.807 359.483 135.241C365.969 135.94 371.587 139.165 377.743 140.737C382.068 141.841 386.403 142.587 390.822 141.076C393.209 140.26 394.875 138.628 396.157 136.597C398.234 133.311 401.386 132.141 405.012 131.816C410.144 131.355 414.763 132.976 419.29 135.204C423.636 137.343 428.039 139.533 432.886 140.191C436.81 140.724 440.694 139.944 444.332 138.302C450.036 135.728 455.664 132.982 461.417 130.525C466.943 128.166 472.32 128.63 477.49 131.877C480.333 133.661 483.277 135.353 486.35 136.684C490.03 138.276 493.953 137.769 497.695 136.77C502.741 135.421 507.64 133.458 512.733 132.372C516.271 131.617 519.942 131.905 522.824 134.976C525.513 137.842 529.065 138.552 532.741 137.505C538.477 135.873 544.125 133.933 549.819 132.154C552.626 131.278 555.436 130.429 558.429 131.4C562.461 132.708 562.912 133.368 562.42 137.559C562.142 139.926 561.808 142.29 561.633 144.666C561.419 147.553 561.375 150.452 561.206 153.344C560.823 159.88 560.414 166.414 560.003 172.949C559.748 176.994 559.441 181.035 559.208 185.081C558.911 190.263 558.676 195.448 558.394 200.631C558.141 205.279 557.833 209.924 557.6 214.572C557.303 220.491 557.06 226.413 556.787 232.333C556.663 235.026 556.504 237.717 556.39 240.41C556.112 246.933 555.852 253.457 555.582 259.98C555.451 263.142 555.301 266.303 555.183 269.464C554.906 276.859 554.643 284.254 554.376 291.649C554.24 295.413 554.101 299.177 553.976 302.942C553.834 307.175 553.704 311.409 553.572 315.642C553.436 320.01 553.3 324.377 553.171 328.745C553.032 333.448 552.899 338.15 552.768 342.853C552.631 347.824 552.497 352.794 552.366 357.765C552.229 363.004 552.093 368.242 551.965 373.481C551.825 379.189 551.695 384.897 551.561 390.605C551.427 396.38 551.291 402.155 551.16 407.93C551.023 413.972 550.889 420.015 550.758 426.058L550.495 438.547C550.45 440.628 550.401 442.709 550.347 444.79C550.259 448.154 550.089 451.515 549.948 454.877C549.941 455.062 549.867 455.244 549.824 455.427C549.733 455.245 549.602 455.073 549.557 454.88C548.075 448.59 546.435 442.33 545.186 435.994C544.344 431.719 543.992 427.342 543.543 422.998C543.278 420.43 543.255 417.838 543.112 415.257C543.098 415.01 543.007 414.767 542.952 414.521C542.873 414.733 542.736 414.941 542.723 415.157C542.25 423.237 540.829 431.123 537.986 438.73C537.161 440.938 536.464 443.193 535.696 445.422C535.596 445.712 535.417 445.975 535.275 446.25C535.237 445.887 535.083 445.49 535.179 445.168C535.644 443.622 536.079 442.057 536.7 440.573C539.549 433.756 539.393 426.569 539.009 419.454C538.721 414.129 537.389 408.907 535.199 403.975C535.066 403.677 534.357 402.287 534.35 401.919C534.349 401.858 534.087 401.802 533.945 401.743C534.054 402.238 534.163 402.732 534.271 403.227C534.539 408.343 534.995 415.458 535.026 420.576C535.064 426.55 534.064 430.436 532.444 436.186C531.586 439.23 530.479 442.204 529.479 445.208C529.411 445.415 529.293 445.605 529.199 445.803C529.147 445.556 528.979 445.259 529.061 445.07C531.71 438.936 531.419 432.362 531.809 425.92C532.174 419.892 532.497 413.818 532.171 407.8C531.717 399.399 530.139 391.147 526.625 383.39C526.548 383.22 526.335 383.11 526.258 382.939C526.001 382.367 525.776 381.779 525.539 381.198C525.385 381.924 525.026 382.674 525.112 383.371C525.399 385.703 526.008 388.002 526.195 390.338C526.577 395.11 526.882 399.895 527.002 404.679C527.137 410.06 527.295 415.463 526.959 420.827C526.631 426.066 525.702 431.268 525.019 436.484C524.637 439.402 524.222 442.317 523.808 445.231C523.781 445.422 523.633 445.595 523.542 445.776C523.499 445.592 523.407 445.405 523.422 445.226C523.542 443.873 523.685 442.522 523.816 441.17C523.953 439.752 524.164 438.335 524.205 436.913C524.372 431.139 524.589 425.364 524.591 419.589C524.594 414.083 524.414 408.574 524.199 403.07C524.026 398.62 523.751 394.172 523.398 389.733C522.93 383.851 522.347 377.978 521.801 372.103C521.7 371.016 521.55 369.933 521.393 368.853C521.362 368.64 521.194 368.447 521.089 368.245C520.926 368.456 520.637 368.657 520.619 368.88C520.452 370.966 520.303 373.055 520.204 375.146C520.046 378.507 519.97 381.872 519.787 385.232C519.413 392.103 519.01 398.973 518.581 405.842C518.358 409.419 518.014 412.989 517.793 416.567C517.363 423.569 516.999 430.576 516.571 437.578C516.345 441.289 516.011 444.994 515.781 448.705C515.356 455.574 515.003 462.447 514.551 469.314C514.394 471.69 514.99 479.439 514.903 480.505C514.391 486.807 512.609 492.838 510.458 498.748C510.039 499.898 509.181 501.083 508.196 501.794C505.419 503.797 503.581 503.48 502.117 499.989C501.758 499.133 501.569 498.206 501.297 497.313C501.261 497.195 501.201 497.084 501.153 496.971C501.067 497.167 500.955 497.356 500.901 497.56C500.358 499.615 500.039 501.761 499.228 503.704C498.418 505.647 497.306 507.537 495.987 509.178C494.389 511.167 491.484 511.269 489.631 509.506C488.577 508.502 488.587 509.782 488.504 509.975C487.674 511.908 487.111 513.971 486.147 515.829C484.646 518.724 482.054 520.024 478.827 519.801C477.382 519.701 477.108 520.147 477.133 521.52C477.198 525.101 475.775 528.018 472.572 529.799C471.788 530.234 470.693 530.326 469.77 530.245C468.457 530.131 468.198 530.611 468.303 531.786C468.41 532.983 468.343 534.197 468.324 535.402C468.277 538.259 466.312 540.26 463.493 540.342C461.35 540.405 460.948 541.001 461.796 542.859C462.648 544.724 461.309 546.52 458.793 546.764C456.234 547.013 454.1 546.437 452.072 544.494C443.735 536.51 437.347 527.179 432.584 516.747C429.494 509.982 427.083 502.934 426.133 495.504C425.461 490.249 424.874 484.972 424.541 479.686C424.163 473.68 425.109 467.767 426.332 461.887C428.648 450.746 432.981 440.278 436.842 429.647C437.734 427.192 438.367 424.631 438.953 422.08C439.967 417.661 440.933 413.227 441.743 408.768C442.026 407.211 441.844 405.555 441.735 403.954C441.716 403.687 440.944 403.21 440.592 403.267C437.532 403.765 434.474 404.295 431.443 404.946C426.255 406.061 421.291 407.789 416.491 410.11C414.714 410.969 412.486 410.876 410.475 411.277C407.262 411.918 404.064 412.632 400.849 413.261C400.181 413.391 399.466 413.264 398.773 413.283C397.585 413.316 395.629 412.971 395.359 413.492C394.634 414.889 394.416 416.655 394.377 418.283C394.167 427.072 393.963 435.864 393.984 444.654C393.995 449.234 394.46 453.815 394.748 458.393C394.993 462.305 395.176 466.224 395.576 470.12C395.981 474.067 396.652 477.985 397.144 481.923C397.473 484.552 397.643 487.201 397.971 489.83C398.463 493.769 399.051 497.695 399.562 501.631C399.993 504.945 400.371 508.267 400.775 511.585C401.04 513.753 401.303 515.921 401.592 518.085C401.618 518.28 401.798 518.564 401.964 518.612C404.979 519.495 405.649 522.143 406.377 524.638C407.514 528.535 408.761 532.437 409.417 536.427C409.92 539.484 409.912 542.721 409.529 545.803C409.139 548.939 408.075 552.002 407.193 555.064C405.863 559.684 403.226 563.581 400.214 567.253C400.018 567.492 399.924 567.816 399.782 568.1C400.075 568.096 400.368 568.089 400.661 568.088C401.197 568.086 401.733 568.087 402.269 568.087H426.595C432.784 568.087 438.972 568.134 445.16 568.076C455.291 567.982 465.422 567.818 475.553 567.687C476.581 567.674 477.609 567.698 478.637 567.683C487.428 567.553 496.218 567.416 505.009 567.285C505.903 567.271 506.798 567.306 507.691 567.279C515.103 567.059 522.514 566.819 529.926 566.617C530.655 566.597 531.391 566.877 532.121 566.867C540.979 566.754 549.836 566.628 558.693 566.473C564.737 566.368 570.779 566.199 576.822 566.084C578.5 566.052 579.397 565.687 579.374 563.583C579.311 557.81 579.584 552.034 579.702 546.259C579.74 544.427 579.789 542.59 579.691 540.763C579.498 537.156 576.804 535.729 573.7 535.571C567.532 535.256 561.349 535.169 555.172 535.133C544.427 535.069 533.681 535.095 522.936 535.133C520.981 535.14 519.026 535.388 517.071 535.511C516.816 535.528 516.557 535.465 516.299 535.439C516.455 535.202 516.598 534.956 516.767 534.729C518.435 532.483 520.942 531.81 523.473 531.547C526.747 531.206 530.073 531.379 533.349 531.054C536.965 530.695 540.548 530.016 544.148 529.493C544.542 529.436 544.951 529.495 545.353 529.484C555.897 529.218 566.442 528.961 576.985 528.645C577.462 528.631 578.193 528.186 578.348 527.772C579.599 524.418 580.301 521.071 579.97 517.342C579.617 513.367 580.29 509.302 580.509 505.276C580.531 504.875 580.512 504.472 580.512 504.07C580.512 500.585 580.481 497.1 580.518 493.616C580.637 482.547 580.765 471.478 580.92 460.409C581.026 452.824 581.184 445.24 581.316 437.656C581.452 429.804 581.583 421.952 581.719 414.1C581.851 406.425 581.987 398.751 582.121 391.077L582.523 367.922C582.657 360.181 582.791 352.44 582.925 344.699C583.059 336.891 583.191 329.082 583.327 321.274C583.459 313.69 583.597 306.106 583.729 298.522C583.865 290.713 583.997 282.905 584.131 275.097C584.265 267.312 584.398 259.527 584.534 251.741C584.666 244.157 584.803 236.573 584.935 228.989C585.071 221.137 585.202 213.284 585.338 205.432L585.739 182.479C585.875 174.693 586.006 166.908 586.142 159.123C586.274 151.606 586.413 144.089 586.543 136.571C586.681 128.518 586.798 120.465 586.951 112.412C587.06 106.68 587.187 100.949 587.37 95.22C587.409 94.0163 587.213 93.5383 585.821 93.5749C577.837 93.7845 569.849 93.8622 561.864 94.0201C556.802 94.1201 551.742 94.2864 546.682 94.4146C541.175 94.5541 535.668 94.6795 530.161 94.8192C525.124 94.9471 520.086 95.0902 515.049 95.2189C509.609 95.3579 504.169 95.4849 498.73 95.6231C493.625 95.7527 488.52 95.8943 483.416 96.0231C477.909 96.1621 472.402 96.2806 466.896 96.4301C462.662 96.5451 458.429 96.7183 454.195 96.8228C447.885 96.9785 441.573 97.0862 435.263 97.2338C430.225 97.3516 425.187 97.5041 420.15 97.6311C414.576 97.7716 409.002 97.895 403.429 98.0364C398.458 98.1624 393.487 98.3084 388.517 98.4353C383.01 98.5759 377.503 98.6926 371.997 98.8429C367.83 98.9567 363.664 99.1326 359.497 99.235C353.12 99.3918 346.741 99.4994 340.364 99.6461C335.192 99.7652 330.02 99.9139 324.849 100.044C319.409 100.182 313.969 100.309 308.53 100.448C303.492 100.577 298.454 100.721 293.417 100.848C287.843 100.988 282.27 101.165 276.695 101.242C264.689 101.407 252.681 101.652 240.674 101.591C235.612 101.565 230.547 100.912 225.495 100.422C222.833 100.164 220.196 99.6452 217.549 99.2363C217.369 99.2084 217.199 99.1128 217.025 99.0487C217.191 98.9788 217.352 98.8899 217.525 98.8452C217.651 98.8128 217.791 98.8416 217.925 98.8385C223.633 98.7049 229.342 98.6119 235.048 98.4262C241.908 98.2029 248.766 97.9092 255.624 97.6283C258.25 97.5207 260.873 97.3366 263.5 97.2369C267.665 97.0789 271.833 96.9723 275.999 96.8253C279.361 96.7066 282.723 96.5523 286.085 96.428C293.48 96.1546 300.875 95.8987 308.269 95.6178C311.096 95.5104 313.92 95.3221 316.748 95.2272C321.517 95.0671 326.287 94.9653 331.056 94.8135C334.553 94.7021 338.049 94.54 341.545 94.4184C345.711 94.2735 349.878 94.1592 354.044 94.01C357.273 93.8944 360.5 93.7171 363.729 93.6182C368.9 93.4598 374.073 93.3548 379.244 93.2059C383.277 93.0899 387.309 92.9354 391.341 92.809C395.842 92.668 400.344 92.5394 404.846 92.4053C409.347 92.2713 413.848 92.1342 418.35 92.0041C423.12 91.8663 427.889 91.7371 432.659 91.6006C437.25 91.4691 441.842 91.3265 446.433 91.2008C451.605 91.0592 456.777 90.9317 461.948 90.7968C467.053 90.6636 472.157 90.5261 477.262 90.3956C482.635 90.2582 488.007 90.1281 493.38 89.9924C498.619 89.8601 503.859 89.7716 509.095 89.5754C513.092 89.4256 517.083 89.1221 521.079 88.9279C521.671 88.8992 522.274 89.1836 522.87 89.1754C531.125 89.0608 539.379 88.9332 547.633 88.7823C553.811 88.6694 559.987 88.5133 566.164 88.3857C572.944 88.2457 579.724 88.0702 586.504 87.9965ZM456.388 614.361C452.207 614.468 448.032 614.858 443.856 615.135C439.946 615.394 436.035 615.643 432.129 615.943C427.268 616.318 422.411 616.739 417.552 617.144C412.76 617.543 407.971 617.977 403.177 618.342C397.45 618.777 391.724 619.326 385.987 619.515C377.27 619.803 368.545 619.829 359.823 619.954C357.88 619.981 355.925 620.093 353.996 619.932C348.449 619.469 342.914 618.879 337.373 618.352C334.403 618.069 331.427 617.849 328.461 617.537C323.654 617.031 318.865 616.269 314.047 615.995C309.349 615.728 304.623 615.886 299.911 615.953C296.213 616.006 292.514 616.138 288.822 616.354C282.955 616.699 277.093 617.134 271.23 617.548C265.7 617.938 260.172 618.346 254.644 618.753C251.069 619.015 247.496 619.289 243.921 619.555C238.527 619.958 233.132 620.359 227.737 620.762C224.163 621.029 220.59 621.304 217.015 621.565C211.42 621.972 205.825 622.39 200.228 622.766C195.784 623.065 191.336 623.289 186.893 623.584C184.381 623.751 183.597 624.609 183.66 627.18C183.694 628.601 183.918 630.017 184.042 631.436C184.582 637.579 185.074 643.727 185.679 649.863C185.852 651.625 186.038 653.599 187.891 654.493C188.993 655.025 190.327 655.305 191.556 655.3C195.32 655.283 199.083 654.99 202.847 654.958C210.24 654.897 217.634 654.985 225.027 654.93C238.305 654.831 251.583 654.671 264.861 654.54C266.09 654.528 267.319 654.558 268.548 654.535C275.394 654.408 282.239 654.223 289.085 654.146C303.837 653.98 318.589 653.847 333.342 653.743C340.6 653.692 347.86 653.779 355.119 653.724C368.13 653.625 381.139 653.465 394.149 653.334C395.445 653.321 396.742 653.352 398.037 653.328C404.883 653.202 411.728 653.016 418.575 652.94C433.327 652.774 448.079 652.641 462.831 652.537C470.023 652.486 477.216 652.573 484.408 652.518C497.485 652.418 510.562 652.259 523.639 652.127C524.935 652.114 526.231 652.143 527.527 652.123C535.713 651.994 543.898 651.824 552.085 651.735C557.712 651.674 563.341 651.767 568.969 651.714C579.902 651.612 590.835 651.46 601.768 651.318C604.166 651.286 605.985 649.573 606.237 647.032C606.804 641.294 607.319 635.55 607.855 629.407C607.989 627.319 608.203 625.232 608.241 623.142C608.291 619.965 606.693 618.746 603.545 619.132C597.467 619.876 591.384 620.905 585.282 621.067C576.235 621.307 567.17 620.959 558.115 620.734C553.867 620.628 549.623 620.268 545.383 619.947C540.721 619.594 536.065 619.171 531.41 618.746C527.286 618.369 523.166 617.941 519.044 617.547L510.534 616.727C507.697 616.456 504.86 616.192 502.021 615.948C496.764 615.495 491.505 615.046 486.238 614.756C481.543 614.499 476.837 614.404 472.134 614.344C466.886 614.276 461.634 614.226 456.388 614.361ZM319.149 575.928C315.144 576.129 311.14 576.349 307.134 576.526C303.505 576.686 299.873 576.798 296.243 576.934C292.68 577.066 289.117 577.206 285.554 577.334C278.026 577.606 270.497 577.868 262.969 578.141C259.539 578.266 256.111 578.43 252.681 578.536C247.711 578.691 242.74 578.787 237.77 578.954C235.612 579.027 233.445 579.105 231.306 579.376C229.243 579.638 227.228 580.332 225.164 580.506C222.581 580.725 219.922 580.783 218.186 578.185C218.06 577.997 217.079 578.089 217.064 578.162C216.136 582.868 213.059 586.22 209.88 589.46C207.28 592.11 204.481 594.564 201.829 597.163C198.486 600.438 195.098 603.676 191.929 607.113C189.573 609.667 187.529 612.508 185.364 615.236C185.149 615.507 185.058 615.876 184.91 616.199C185.292 616.246 185.677 616.343 186.058 616.331C190.091 616.21 194.123 616.083 198.155 615.933C201.25 615.818 204.342 615.648 207.437 615.54C211.804 615.386 216.175 615.329 220.538 615.112C223.85 614.947 227.15 614.567 230.459 614.335C236.523 613.91 242.591 613.539 248.655 613.116C252.031 612.881 255.411 612.66 258.775 612.299C263.051 611.84 267.308 611.207 271.581 610.723C274.545 610.386 277.526 610.207 280.494 609.898C285.367 609.39 290.226 608.694 295.111 608.344C298.534 608.099 301.989 608.245 305.429 608.312C308.792 608.378 312.167 608.418 315.512 608.737C319.393 609.108 323.243 609.797 327.113 610.3C330.494 610.739 333.891 611.054 337.266 611.528C341.62 612.139 345.958 612.872 350.308 613.512C351.424 613.675 352.563 613.683 353.691 613.763C352.769 612.815 351.939 611.75 350.908 610.94C345.753 606.889 341.548 601.909 337.727 596.693C334.256 591.955 331.46 586.721 328.404 581.682C326.32 578.247 323.869 575.431 319.149 575.928ZM577.324 573.283C574.113 573.59 570.872 573.609 567.643 573.711C562.674 573.868 557.703 573.996 552.732 574.116C546.69 574.262 540.648 574.424 534.605 574.513C523.604 574.675 512.603 574.791 501.601 574.92C500.104 574.938 498.607 574.9 497.11 574.927C489.995 575.052 482.88 575.191 475.364 575.325H434.216C421.685 575.325 409.153 575.273 396.623 575.378C394.622 575.395 392.617 576.142 391.638 578.239C389.908 581.944 388.365 585.744 386.485 589.369C382.045 597.928 375.764 605.076 368.69 611.516C367.202 612.871 368.216 613.31 369.046 613.451C370.567 613.708 372.169 613.621 373.725 613.506C378.521 613.153 383.311 612.727 388.103 612.316C392.695 611.923 397.285 611.502 401.877 611.115C406.802 610.699 411.73 610.318 416.655 609.902C421.248 609.515 425.833 609.039 430.43 608.714C436.96 608.253 443.495 607.834 450.034 607.519C453.199 607.367 456.381 607.395 459.549 607.516C464.199 607.694 468.845 608.002 473.49 608.304C479.222 608.677 484.951 609.102 490.681 609.503C494.524 609.772 498.367 610.037 502.209 610.308C507.873 610.708 513.536 611.11 519.199 611.514C522.908 611.779 526.616 612.055 530.325 612.316C534.234 612.591 538.145 612.849 542.054 613.124C545.763 613.385 549.469 613.689 553.18 613.919C558.026 614.218 562.876 614.695 567.722 614.672C573.979 614.643 580.246 614.361 586.484 613.877C592.121 613.44 597.729 612.606 603.345 611.908C606.26 611.545 607.348 609.39 605.836 606.927C600.226 597.787 594.53 588.701 588.975 579.529C586.281 575.081 582.658 572.773 577.324 573.283ZM354.743 352.973C354.459 353.788 354.263 354.648 353.874 355.409C352.542 358.011 351.124 360.568 349.772 363.16C346.673 369.099 343.6 374.956 337.958 379.121C334.281 381.836 329.974 383.867 327.35 387.924C326.576 389.121 325.215 389.933 324.412 391.117C322.975 393.235 321.827 395.548 320.434 397.699C315.035 406.037 310.1 414.594 307.219 424.192C304.988 431.625 303.401 439.161 303.483 446.96C303.525 450.993 303.62 455.032 303.905 459.054C304.141 462.38 304.669 465.687 305.109 468.997C305.749 473.819 306.54 478.624 307.03 483.46C307.232 485.448 306.6 487.513 306.732 489.517C306.96 492.98 307.294 496.46 307.932 499.868C309.148 506.367 310.534 512.838 311.992 519.288C313.485 525.888 315.189 532.441 316.727 539.032C319.08 549.119 322.518 558.824 327.053 568.124C331.627 577.504 337.08 586.377 343.276 594.764C346.235 598.768 349.316 602.755 352.835 606.252C356.752 610.143 361.861 610.906 365.973 606.267C368.503 603.414 370.902 600.438 373.228 597.416C378.3 590.824 383.29 584.168 388.304 577.53C388.482 577.294 388.561 576.983 388.686 576.707C388.376 576.648 388.066 576.581 387.754 576.533C385.36 576.162 382.906 576.017 380.583 575.388C372.944 573.318 366.804 568.542 360.626 563.901C354.782 559.513 349.038 554.994 343.222 550.569C342.294 549.863 341.426 549.845 340.727 551.101C338.814 554.539 336.816 557.929 334.818 561.319C334.485 561.883 333.986 562.349 333.564 562.86C333.048 562.23 332.428 561.659 332.034 560.96C330.555 558.332 332.051 555.9 332.78 553.505C334.318 548.45 335.458 543.37 335.243 538.042C335.057 533.409 334.813 528.77 334.883 524.138C334.931 520.991 336.084 517.897 338.8 516.254C340.867 515.002 340.566 513.543 340.366 511.929C339.65 506.147 338.466 500.398 338.138 494.599C337.715 487.123 337.904 479.608 339.254 471.785C339.388 470.904 339.474 470.013 339.664 469.145C340.552 465.094 341.264 460.989 342.425 457.017C344.027 451.54 345.879 446.129 347.813 440.758C348.922 437.677 354.092 427.226 353.721 430.361C353.566 432.086 351.402 440.466 350.138 444.484C348.177 450.718 346.227 456.965 344.589 463.289C342.609 470.931 341.125 478.686 341.274 486.644C341.354 490.945 341.473 495.247 341.684 499.543C341.864 503.189 342.197 506.827 342.473 510.468C342.567 511.702 343.462 512.617 344.143 512.19C345.423 511.388 346.688 510.562 347.949 509.73C354.31 505.534 359.93 500.472 365.13 494.934C366.125 493.874 367.363 492.744 367.718 491.437C368.759 487.613 369.506 483.7 370.185 479.79C370.734 476.632 371.018 473.427 371.422 470.244C372.091 464.959 373.023 459.69 373.329 454.385C373.499 451.436 372.554 448.433 372.246 445.441C371.944 442.498 371.968 439.516 371.569 436.59C370.979 432.25 370.33 427.901 369.347 423.638C368.655 420.635 367.838 417.479 366.25 414.901C363.026 409.67 359.028 404.919 355.756 399.714C353.214 395.669 351.007 391.249 350.601 386.415C350.196 381.601 350.346 376.717 350.626 371.886C350.699 370.63 351.929 368.871 353.063 368.405C354.263 367.912 355.267 369.415 355.755 370.779C356.485 372.818 357.314 374.822 358.105 376.84C358.187 377.051 358.293 377.253 358.387 377.458C358.443 377.214 358.558 376.964 358.539 376.725C358.515 376.421 358.368 376.128 358.297 375.825C357.265 371.416 356.05 367.056 356.091 362.445C356.112 360.146 355.632 357.839 355.324 355.543C355.208 354.676 354.941 353.829 354.743 352.973ZM307.004 531.874C304.857 532.091 302.697 532.185 300.541 532.296C297.583 532.448 294.624 532.581 291.665 532.7C284.809 532.976 277.954 533.239 270.696 533.507C265.046 533.775 259.398 534.109 253.745 534.293C247.306 534.503 240.862 534.66 234.42 534.671C232.048 534.675 229.672 534.225 227.304 533.936C224.123 533.548 220.957 532.931 217.766 532.751C214.088 532.543 213.04 533.745 212.992 537.429C212.899 544.526 212.786 551.629 215.016 558.497C215.915 561.267 216.543 564.225 217.981 566.698C220.134 570.401 223.988 572.027 228.096 572.03C235.688 572.035 243.281 571.575 250.873 571.302C254.368 571.177 257.863 571.033 261.358 570.903C268.615 570.632 275.873 570.37 283.13 570.096C286.357 569.974 289.583 569.788 292.811 569.704C299.185 569.54 305.561 569.435 311.936 569.29L312.401 569.279C315.657 569.197 318.881 569.119 320.798 572.665C320.968 572.978 321.94 572.858 322.54 572.939C322.581 572.426 322.812 571.832 322.633 571.413C321.075 567.771 319.456 564.154 317.831 560.54C313.867 551.725 310.983 542.55 308.695 533.176C308.478 532.29 308.092 531.764 307.004 531.874ZM362.766 508.238C358.01 510.687 353.253 513.163 348.687 515.942C346.654 517.179 344.825 518.978 343.377 520.882C342.258 522.353 341.862 524.379 341.168 526.168C339.349 530.852 340.813 535.131 343.365 538.921C347.346 544.834 351.832 550.399 357.353 555.001C360.751 557.834 385.5 574.927 394.647 567.167C395.917 566.09 396.453 564.443 397.194 562.998C400.219 557.089 405.105 552.09 406.123 545.208C406.529 542.457 406.891 539.62 406.659 536.874C406.391 533.696 405.432 530.577 404.801 527.427C404.386 525.358 404.269 523.162 402.204 521.873C401.942 521.709 401.654 521.586 401.378 521.444C401.311 521.751 401.143 522.075 401.192 522.362C401.812 525.954 402.179 529.525 403.424 533.077C404.922 537.352 404.148 541.956 402.395 546.256C401.616 548.167 398.921 549.078 397.081 548.856C391.95 548.237 387.686 545.722 383.97 542.228C378.723 537.296 375.453 531.136 372.829 524.258C372.226 522.498 371.646 520.73 371.014 518.98C369.961 516.069 369.01 513.109 367.759 510.284C366.774 508.057 364.725 507.228 362.766 508.238ZM452.754 316.858C452.918 317.363 452.988 317.927 453.263 318.363C454.907 320.972 456.876 321.416 458.219 324.167C461.314 330.511 463.621 335.139 466.338 341.653C467.389 344.173 467.496 347.46 468.371 351.623C468.403 351.778 468.863 352.214 469.196 352.409C470.918 353.418 472.786 354.225 474.373 355.409C478.918 358.8 480.373 362.54 478.993 367.367C476.559 375.88 473.668 371.625 475.401 366.544C476.106 364.479 475.58 362.369 473.952 360.865C473.408 360.363 470.974 359.137 467.969 357.741C467.683 357.608 467.891 358.533 466.678 360.982C466.316 361.714 464.91 363.828 464.509 362.755C463.825 360.921 465.093 356.428 464.509 356.167L463.885 355.89C459.101 353.768 454.309 351.79 453.722 351.717C451.933 351.495 450.273 352.371 450.257 355.566C450.216 363.389 447.114 369.709 441.168 374.691C435.88 379.121 429.985 381.436 422.916 380.348C417.739 379.552 413.321 377.385 409.488 373.927C406.109 370.878 403.547 367.273 402.395 362.8C402.119 361.726 401.82 361.796 401.08 362.481C397.391 365.897 394.953 370.055 393.571 374.857C393.406 375.429 393.371 376.038 393.276 376.629C393.907 376.574 394.563 376.61 395.164 376.447C396.905 375.974 398.623 375.42 400.352 374.902C400.576 374.835 400.809 374.793 401.037 374.74C400.95 374.933 400.843 375.12 400.778 375.321C399.972 377.798 398.188 379.354 395.836 380.181C393.209 381.105 389.223 378.551 389.97 375.914C390.504 374.027 391.444 372.236 392.34 370.472C393.889 367.422 395.545 364.427 397.357 361.409C397.528 360.91 397.7 360.412 397.872 359.913C397.499 360.278 397.126 360.642 396.553 361.007C396.268 361.425 396.06 361.935 395.688 362.249C390.522 366.603 384.759 368.975 377.799 368.315C373.827 367.937 370.37 366.545 367.099 364.496C364.336 362.766 361.364 363.811 361.048 367.027C360.828 369.271 361.059 371.67 361.627 373.859C363.47 380.953 365.443 387.976 368.469 394.741C370.697 399.72 373.802 403.166 378.866 404.805C382.66 406.033 386.494 407.249 390.402 407.983C395.094 408.865 399.854 408.831 404.579 407.7C408.016 406.878 411.536 406.406 414.982 405.614C418.327 404.846 421.82 404.298 424.905 402.898C432.406 399.494 445.757 388.324 451.786 382.769C452.072 382.506 452.355 382.242 452.639 381.978C452.696 382.357 452.823 382.74 452.799 383.113C452.567 386.605 443.774 394.944 440.631 396.461C440.029 396.752 439.864 397.946 439.497 398.724C440.168 399.019 440.831 399.528 441.511 399.551C442.283 399.579 443.062 399.134 443.855 398.978C444.074 398.935 444.548 399.163 444.572 399.318C444.762 400.527 444.968 401.747 444.987 402.966C445.04 406.406 445.072 409.849 444.968 413.286C444.933 414.455 444.595 415.658 444.181 416.766C441.405 424.191 438.404 431.537 435.806 439.023C433.443 445.833 431.23 452.719 429.457 459.701C428.178 464.739 427.249 469.968 427.027 475.149C426.72 482.347 426.597 489.573 428.041 496.772C429.638 504.736 432.67 512.035 436.991 518.804C441.677 526.143 446.555 533.362 451.504 540.527C452.728 542.298 454.007 544.199 456.166 545.113C456.717 545.346 458.161 545.069 458.948 544.596C459.817 544.074 460.102 543.168 459.522 541.96C457.539 537.83 455.718 533.622 453.854 529.435C451.133 523.326 448.401 517.221 445.721 511.093C441.097 500.518 439.312 489.31 439.073 477.904C438.933 471.247 439.72 464.565 440.202 457.903C440.482 454.04 440.839 450.172 441.419 446.345C442.37 440.07 443.629 433.842 444.577 427.566C445.604 420.769 447.327 414.201 450.734 408.203C453.291 403.702 456.629 399.794 461.471 397.631C467.321 395.017 472.832 392.11 476.915 386.881C480.718 382.009 483.026 376.582 483.546 370.534C484.226 362.604 482.365 355.226 477.559 348.719C473.52 343.249 469.687 337.666 466.678 331.52C463.634 325.302 460.163 321.325 454.007 317.529C453.604 317.281 453.172 317.081 452.754 316.858ZM352.769 371.909C352.553 372.526 352.179 373.135 352.145 373.762C351.831 379.545 352.678 385.228 354.611 390.627C356.268 395.253 358.259 399.857 361.597 403.596C364.235 406.551 365.981 410.264 369.317 412.626C369.613 412.836 369.686 413.397 369.808 413.811C370.881 417.444 372.052 421.053 372.975 424.724L373.22 425.709C373.989 428.831 374.646 431.991 374.244 435.265C374.187 435.727 374.191 436.208 374.243 436.671C374.903 442.493 375.557 448.315 376.253 454.133C376.819 458.871 375.119 463.333 374.622 467.941C374.307 470.866 373.874 473.781 373.421 476.689C372.933 479.825 372.405 482.957 371.811 486.074C371.197 489.292 370.766 492.589 369.701 495.659C369.117 497.344 369.312 498.565 369.888 500.027C371.113 503.139 372.196 506.308 373.444 509.411C376.355 516.648 379.134 523.949 382.342 531.054C384.781 536.456 389.041 540.145 394.845 541.852C397.658 542.679 400.188 541.694 400.665 539.388C400.894 538.28 400.764 537.027 400.506 535.907C400.249 534.79 399.333 533.785 399.223 532.68C398.924 529.669 398.896 526.631 398.766 523.604C398.743 523.073 398.776 522.538 398.722 522.011C398.343 518.352 397.923 514.697 397.565 511.035C397.241 507.718 397.058 504.385 396.668 501.076C396.248 497.525 395.606 494.001 395.166 490.452C394.917 488.444 394.977 486.398 394.721 484.392C394.262 480.784 393.53 477.207 393.168 473.592C392.637 468.276 392.285 462.941 391.942 457.609C391.613 452.497 391.255 447.38 391.158 442.261C391.024 435.227 391.009 428.185 391.188 421.153C391.249 418.79 391.972 416.423 392.564 414.102C392.814 413.12 392.733 412.971 391.71 412.837C388.433 412.409 385.135 411.989 381.926 411.228C376.58 409.96 372.224 407.092 369.428 402.249C366.469 397.121 363.648 391.914 360.565 386.54C359.901 385.608 359.187 384.707 358.584 383.737C357.467 381.941 356.258 380.175 355.389 378.26C354.728 376.802 354.615 375.104 354.092 373.569C353.876 372.939 353.223 372.458 352.769 371.909ZM446.451 309.53C446.264 309.55 446.08 309.605 445.895 309.643C446.028 309.833 446.12 310.081 446.298 310.203C448.543 311.731 450.819 313.213 453.049 314.761C457.97 318.175 462.197 320.307 465.496 325.31C469.584 331.507 473.592 337.757 477.565 344.028C481.358 350.016 484.93 356.025 485.722 363.392C486.245 368.259 485.984 372.946 484.541 377.503C481.293 387.755 474.418 394.965 464.589 398.999C457.667 401.839 453.625 406.986 451.108 413.546C449.618 417.43 448.703 421.555 447.777 425.629C446.589 430.858 445.545 436.126 444.637 441.411C443.932 445.515 443.454 449.663 443.013 453.806C442.403 459.539 441.55 465.282 441.49 471.028C441.427 476.954 441.972 482.914 442.664 488.81C443.192 493.309 444.097 497.806 445.303 502.175C448.636 514.244 454.839 525.048 460.699 535.989C461.663 537.79 463.647 538.216 464.805 536.691C465.493 535.784 465.894 534.147 465.585 533.082C464.011 527.66 462.016 522.359 460.444 516.935C457.996 508.487 455.77 499.973 453.449 491.085C453.315 490.94 453.087 490.81 453.061 490.648C452.507 487.121 451.922 483.597 451.452 480.058C450.861 475.598 449.977 471.129 449.922 466.655C449.839 459.937 450.054 453.179 450.736 446.498C451.259 441.38 452.437 436.284 453.793 431.306C456.202 422.463 460.068 414.233 465.54 406.843C467.698 403.929 470.09 401.178 472.513 398.475C475.465 395.181 478.994 392.319 481.504 388.731C486.292 381.887 488.354 373.925 488.75 365.66C488.958 361.305 488.767 356.814 487.915 352.553C486.77 346.829 485.084 341.171 483.143 335.657C480.068 326.923 475.377 319.207 467.747 313.554C461.383 308.839 454.36 308.671 446.451 309.53ZM448.747 298.365C445.443 298.27 442.112 301.073 438.801 301.524C438.668 301.542 438.445 302.195 438.547 302.429C439.499 304.603 441.443 305.762 443.532 306.245C447.423 307.145 451.402 305.67 455.349 306.318C464.682 307.848 471.665 313.324 477.475 320.238C482.326 326.011 485.564 332.865 487.445 340.189C488.855 345.682 490.256 351.271 490.702 356.893C491.186 362.993 491.104 369.165 489.721 375.297C488.054 382.688 484.949 389.19 479.825 394.73C477.167 397.604 474.366 400.348 471.746 403.255C467.994 407.42 464.955 412.096 462.293 417.022C459.332 422.5 456.973 428.212 455.22 434.198C453.255 440.907 452.041 447.765 451.939 454.708C451.857 460.297 452.51 465.913 453.091 471.491C453.545 475.859 454.204 480.226 455.098 484.525C456.697 492.209 458.403 499.877 460.33 507.485C461.838 513.44 463.675 519.337 466.694 524.733C467.413 526.02 468.871 527.549 470.151 527.716C472.209 527.984 475.315 522.893 474.746 520.828C473.951 517.941 473.152 515.056 472.347 512.172C469.707 502.709 468.499 492.981 468.055 483.241C467.687 475.139 468.283 466.974 468.795 458.859C469.109 453.887 469.846 448.913 470.799 444.019C471.876 438.491 473.438 433.058 474.734 427.571C476.307 420.909 479.938 415.118 482.568 408.903C485.464 402.061 488.597 395.315 491.32 388.406C493.58 382.67 494.891 376.662 495.747 370.518C496.466 365.363 496.834 360.197 495.966 355.144C494.995 349.493 493.369 343.935 491.733 338.424C489.529 331 486.964 323.675 487.226 315.369C487.382 311.896 485.267 309.743 482.732 307.948C478.565 304.999 473.687 303.594 468.946 301.938C462.416 299.656 455.621 298.565 448.747 298.365ZM302.283 502.36C300.158 506.152 298.106 509.985 295.827 514.005C295.544 514.556 295.259 515.107 294.978 515.659C293.642 518.283 291.416 520.667 293.281 524.037C293.68 524.758 293.783 525.13 294.648 525.08C297.732 524.902 300.842 524.966 303.895 524.572C305.026 524.425 306.612 523.47 306.942 522.519C307.387 521.238 306.897 519.592 306.664 518.126C306.339 516.074 305.847 514.049 305.491 512.002C305.302 510.92 305.184 509.816 305.149 508.718C305.079 506.543 305.294 504.413 303.726 502.469C302.986 501.552 302.677 501.657 302.283 502.36ZM490.049 319.335C490.298 322.039 490.231 324.834 490.925 327.423C492.552 333.485 494.647 339.42 496.369 345.459C497.786 350.43 498.971 355.477 498.872 360.704C498.823 363.264 498.612 365.82 498.486 368.379C498.198 374.177 496.654 379.718 494.968 385.218C491.539 396.404 486.004 406.702 481.391 417.39C479.381 422.047 477.745 426.911 476.444 431.815C475.039 437.113 474.083 442.544 473.196 447.96C472.448 452.529 471.68 457.154 471.627 461.763C471.514 471.436 471.063 481.134 472.337 490.783C472.809 494.36 473.152 497.954 473.554 501.942C474.224 506.356 474.766 510.796 475.653 515.166C475.882 516.298 477.05 517.901 478.03 518.101C481.248 518.758 483.86 517.225 485.188 514.176C487.211 509.532 488.704 504.915 487.338 499.575C486.017 494.411 485.488 489.027 484.848 483.711C484.157 477.965 483.543 472.195 483.258 466.417C482.941 459.997 482.999 453.533 484.452 447.227C485.53 442.552 486.757 437.884 488.328 433.356C491.149 425.221 494.589 417.293 497.201 409.097C500.662 398.239 502.406 386.983 503.253 375.629C503.597 371.008 503.252 366.338 503.323 361.693C503.426 354.956 502.891 348.276 501.69 341.653C500.946 337.552 500.328 333.407 499.226 329.399C497.974 324.841 495.324 321.17 491.078 318.739C489.941 318.088 489.971 318.492 490.049 319.335ZM501.849 328.088C501.934 328.606 502.018 329.125 502.103 329.844C503.041 335.151 504.23 340.429 504.851 345.772C505.544 351.736 505.944 357.755 506.053 363.758C506.139 368.464 505.734 373.196 505.281 377.891C504.782 383.057 504.268 388.252 503.239 393.329C501.822 400.321 500.205 407.301 498.133 414.122C496.266 420.272 493.734 426.225 491.385 432.221C487.178 442.965 485.154 454.065 485.607 465.61C485.683 467.55 485.462 469.51 485.648 471.435C486.088 475.979 486.629 480.516 487.247 485.04C487.651 487.99 488.365 490.898 488.751 493.85C489.163 496.998 489.872 500.245 489.457 503.315C489.175 505.4 490.126 506.643 490.734 508.181C490.899 508.597 491.786 508.897 492.366 508.945C493.955 509.076 496.46 506.774 497.287 504.694C499.372 499.445 499.9 493.903 500.007 488.368C500.071 485.059 499.215 481.741 498.904 478.415C498.457 473.64 497.706 468.84 497.861 464.076C498.049 458.299 498.809 452.509 499.76 446.798C500.634 441.545 501.644 436.236 503.379 431.223C507.543 419.193 510.029 406.896 510.526 394.199C510.781 387.693 510.859 381.18 510.925 374.669C510.947 372.515 510.66 370.359 510.552 368.202C510.398 365.11 510.469 361.993 510.104 358.927C509.447 353.414 508.946 347.829 507.607 342.466C506.472 337.917 504.248 333.639 502.505 329.04C502.287 328.723 502.068 328.405 501.849 328.088ZM511.89 349.008C511.711 349.269 511.441 349.508 511.374 349.795C511.284 350.176 511.32 350.596 511.356 350.995C511.751 355.317 512.268 359.632 512.527 363.962C512.799 368.521 512.81 373.094 512.975 377.66C513.004 378.479 513.228 379.291 513.362 380.508C513.228 384.004 513.196 387.506 512.937 390.992C512.482 397.14 512.246 403.336 511.251 409.403C510.25 415.506 508.779 421.584 506.902 427.479C503.768 437.322 501.181 447.266 500.578 457.58C500.246 463.258 500.661 468.991 500.925 474.69C501.201 480.648 501.661 486.599 502.127 492.546C502.271 494.378 502.462 496.271 503.072 497.98C503.519 499.232 504.684 500.228 505.529 501.339C506.649 500.216 508.159 499.281 508.804 497.931C509.999 495.43 510.917 492.74 511.527 490.032C512.241 486.863 512.794 483.599 512.867 480.363C512.925 477.794 511.914 475.215 511.807 472.623C511.617 468.053 511.598 463.462 511.795 458.893C512.017 453.76 512.457 448.63 512.988 443.518C513.531 438.289 514.336 433.088 514.961 427.867L515.573 422.769C516.08 418.52 516.568 414.269 516.948 410.008C517.379 405.177 517.702 400.321 517.74 395.473C517.79 389.032 517.582 382.586 517.36 376.147C517.215 371.966 516.943 367.785 516.554 363.62C516.095 358.711 514.657 354.062 512.315 349.709C512.186 349.469 512.032 349.241 511.89 349.008ZM607.752 465.633C611.369 466.469 615.002 467.251 618.65 467.942C620.725 468.336 622.845 468.501 625.145 468.769C630.271 469.171 635.189 469.792 640.121 469.928C649.407 470.186 658.454 468.671 667.205 465.502C667.319 465.461 667.395 465.24 667.492 465.237C668.343 465.213 669.194 465.219 670.046 465.217C669.477 465.731 668.976 466.357 668.33 466.74C663.509 469.599 658.371 471.466 652.801 472.466C646.606 473.578 640.39 473.413 634.237 473.066C627.461 472.684 620.706 471.711 614.035 470.078C608.377 468.693 602.932 466.849 597.558 464.695C597.221 464.559 596.923 464.323 596.607 464.134C596.916 464.07 597.227 464.015 597.533 463.943C601.178 463.078 604.378 464.852 607.752 465.633ZM610.896 414.511C613.103 415.318 615.295 416.171 617.464 417.076C618.778 417.624 620.04 418.294 621.426 419.009C627.655 421.805 633.955 423.819 640.587 425.028C646.915 426.182 653.245 426.341 659.582 426.062C663.56 425.888 667.5 424.883 671.461 424.275C671.945 424.201 672.453 424.282 672.949 424.292C672.648 424.757 672.457 425.409 672.03 425.659C667.823 428.119 663.366 429.784 658.438 430.19C646.634 431.164 635.574 428.213 624.935 423.603C619.932 421.435 615.317 418.367 610.545 415.674C610.14 415.446 609.877 414.966 609.547 414.603C610 414.564 610.509 414.37 610.896 414.511ZM299.203 414.527C298.874 415.258 298.588 416.012 298.208 416.716C297.431 418.151 296.166 419.453 296.649 421.263C297.384 424.017 298.232 426.741 299.066 429.468C299.108 429.604 299.65 429.732 299.66 429.713C299.882 429.274 300.062 428.814 300.25 427.956C300.627 427.311 300.884 426.537 301.409 426.054C302.126 425.393 302.221 424.882 301.899 423.938C301.079 421.534 300.46 419.06 299.766 416.613C299.569 415.92 299.39 415.223 299.203 414.527ZM303.689 404.052C303.481 404.285 303.203 404.486 303.076 404.757C302.322 406.377 301.384 407.953 300.916 409.655C299.902 413.337 301.65 416.758 302.261 420.287C302.529 420.163 302.933 420.112 303.044 419.905C304.205 417.723 305.416 415.558 306.394 413.294C306.74 412.492 306.722 411.355 306.45 410.506C306.059 409.288 305.284 408.194 304.673 406.645C304.539 406.1 304.443 405.542 304.257 405.016C304.136 404.671 303.883 404.372 303.689 404.052ZM308.362 385.133C308.205 385.55 307.903 385.97 307.913 386.383C307.987 389.367 307.161 392.106 306.088 394.868C305.414 396.604 305.033 398.428 305.329 400.526C305.645 402.764 307.097 403.998 308.113 405.631C308.572 406.369 309.233 406.981 309.802 407.65C310.304 406.98 310.806 406.31 311.509 405.439C312.312 403.965 313.152 402.51 313.911 401.014C315.596 397.692 315.578 397.685 312.913 394.775C312.696 394.539 312.501 394.281 312.315 394.02C310.65 391.69 309.725 389.069 309.198 386.274C309.119 385.856 308.65 385.511 308.362 385.133ZM314.077 371.909C313.888 372.232 313.682 372.546 313.514 372.879C312.705 374.482 312.065 376.198 311.067 377.672C309.524 379.952 310.602 382.078 311.117 384.249C312.046 388.162 313.299 391.942 316.005 395.059C316.629 395.779 316.622 395.785 317.339 394.381C318.662 392.522 319.939 390.628 321.327 388.82C321.977 387.974 322.559 387.443 321.48 386.376C320.27 385.18 319.107 383.786 318.401 382.258C316.978 379.18 315.883 375.95 314.635 372.79C314.51 372.472 314.266 372.201 314.077 371.909ZM371.884 384.804C373.297 385.456 374.67 386.316 375.844 387.341C379.103 390.184 382.818 391.475 387.125 391.188C387.728 391.148 400.536 390.502 399.578 392.148C398.925 393.271 389.253 395.132 388.145 395.147C383.688 395.207 378.341 393.077 376.103 392.148C375.199 391.773 368.539 387.762 369.789 385.41C370.274 384.499 371.386 384.573 371.884 384.804ZM320.385 361.982C319.705 363.029 318.732 363.995 318.419 365.142C318.036 366.549 316.67 367.653 317.133 369.315C318.088 372.74 318.823 376.242 320.023 379.578C320.778 381.68 322.207 383.54 323.367 385.489C323.393 385.532 323.919 385.412 324.035 385.246C325.61 382.99 327.726 381.424 330.407 380.106C331.084 379.637 331.722 379.093 332.447 378.719C333.298 378.279 333.195 378.178 332.434 377.663C327.607 374.395 324.26 369.846 321.572 364.765C321.102 363.876 320.777 362.911 320.385 361.982ZM98.103 322.9C98.2451 323.115 98.3732 323.34 98.5314 323.541C102.461 328.548 106.396 333.551 110.325 338.559C110.719 339.061 111.086 339.584 111.566 340.198C115.504 344.271 119.164 348.436 123.225 352.165C128.149 356.685 133.391 360.861 138.534 365.141C142.236 368.222 145.933 371.393 150.526 373.058C153.451 374.118 156.516 375.139 159.583 375.391C166.416 375.952 173.297 375.911 180.144 376.351C182.221 376.484 184.257 377.358 186.289 377.97C186.59 378.06 187.45 378.542 186.131 378.736C182.306 379.301 178.524 380.182 174.69 380.656C172.357 380.945 169.959 380.739 167.592 380.704C161.497 380.615 155.742 379.054 150.126 376.771C142.972 373.864 136.565 369.783 130.828 364.658C126.887 361.138 122.775 357.74 119.273 353.812C113.021 346.798 107.063 339.511 101.218 332.15C99.3364 329.781 98.1306 326.845 98.0009 323.659C97.9907 323.408 98.0669 323.153 98.103 322.9ZM326.27 351.709C324.492 353.952 322.212 356.061 322.814 359.283C323.246 361.595 324.063 363.84 324.787 366.09C326.355 370.966 330.378 373.71 334.138 376.657C334.339 376.815 335.03 376.654 335.263 376.416C338.411 373.195 341.517 369.934 344.635 366.683C345.232 366.061 346.074 365.521 344.284 365.376C343.078 365.279 341.92 364.654 340.73 364.299C339.238 363.854 337.736 363.443 335.836 363.017C334.431 361.747 333.148 360.299 331.596 359.246C328.956 357.456 327.322 355.13 326.769 352.005C326.745 351.875 326.29 351.685 326.27 351.709ZM423.528 338.1L422.153 338.558C418.641 339.734 415.157 340.984 412.339 343.601C409.104 346.605 407.446 350.467 406.431 354.619C406.226 355.458 406.083 356.292 406.007 357.115C406.079 356.808 406.172 356.508 406.272 356.235C406.542 355.494 407.223 354.885 407.779 354.269L408.004 354.023C409.098 352.851 410.273 351.956 412.037 353.105C413.98 354.371 413.122 355.946 412.579 357.487C412.395 358.007 412.119 358.494 411.784 359.097C410.879 360.594 409.641 361.408 408.097 360.937C407.259 360.681 406.326 359.835 406.01 359.029C405.985 358.966 405.964 358.9 405.946 358.833C406.011 361.659 406.925 364.337 408.865 366.706C410.561 368.779 412.631 370.588 414.717 372.289C419.769 376.41 425.439 377.133 431.182 374.143C438.5 370.333 442.141 363.43 445.407 355.981C445.612 354.309 446.076 352.62 445.967 350.969C445.752 347.729 443.664 345.437 441.316 343.481C436.167 339.192 430.704 335.691 423.528 338.1ZM333.817 336.889C333.35 337.432 332.852 337.951 332.431 338.527C332.22 338.816 332.124 339.201 332.02 339.555C331.075 342.776 329.939 345.959 329.274 349.237C328.858 351.293 329.395 353.429 330.81 355.578C332.411 356.718 334.009 357.861 335.614 358.995C338.851 361.282 342.672 362.016 346.399 362.968C346.703 363.045 347.433 362.495 347.548 362.112C348.589 358.634 349.54 355.129 350.488 351.625C350.507 351.555 350.18 351.305 349.996 351.281C346.714 350.846 343.466 350.658 340.688 348.273C337.649 345.665 335.784 342.456 334.433 338.824C334.197 338.191 334.021 337.535 333.817 336.889ZM371.738 322.788C367.849 323.437 365.29 326.282 363.055 329.36C360.32 333.125 358.776 337.384 358.626 341.971C358.501 345.776 359.585 349.438 361.351 352.873L361.631 353.42C362.703 355.507 363.792 357.499 366.107 358.616C371.844 361.385 377.857 362.309 384.109 361.357C385.98 361.072 388.169 360.632 389.501 359.457C394.606 354.955 397.431 349.156 398.161 342.108C398.094 340.583 398.117 339.048 397.943 337.535C397.424 333.02 395.052 329.584 391.549 326.825C388.469 324.398 384.867 323.008 381.103 322.508C378.039 322.102 374.8 322.277 371.738 322.788ZM381.48 294.061C379.396 300.344 377.323 306.631 375.284 312.929C375.737 312.837 376.219 312.658 376.596 312.786C378.863 313.554 381.043 314.475 382.815 316.21C383.812 317.186 385.031 317.935 386.251 318.887C386.51 319.107 386.765 319.314 387.014 319.515C387.164 319.554 387.314 319.596 387.463 319.638C392.027 320.93 395.964 323.343 398.766 327.334C402.513 332.668 403.423 338.895 404.393 345.106C404.442 345.422 404.48 345.74 404.523 346.057C404.846 345.916 405.222 345.837 405.482 345.619C405.994 345.19 406.446 344.69 406.914 344.21C410.57 340.461 414.671 337.248 419.394 335.021C424.413 332.654 429.58 332.068 435.014 334.23C439.094 335.853 442.37 338.46 445.557 341.279C446.946 342.509 453.479 345.623 465.156 350.623C463.247 342.559 461.28 336.765 459.255 333.241C456.704 328.802 453.827 325.412 450.241 322.095C443.977 316.301 437.424 310.978 430.151 306.481C422.499 301.749 414.23 298.609 405.618 296.3C399.566 294.677 393.433 293.36 387.343 291.876C384.683 291.228 382.124 292.121 381.48 294.061ZM341.734 329.268C338.536 331.436 335.984 335.134 337.436 339.687C339.046 344.735 344.739 349.097 350.141 349.291C350.653 349.309 351.439 348.665 351.672 348.14C352.322 346.672 352.784 345.115 353.235 343.569C353.321 343.274 353.026 342.558 352.895 342.555C349.468 342.48 347.278 340.286 344.883 337.886C343.337 335.356 342.279 332.685 342.438 329.641C342.444 329.521 341.844 329.193 341.734 329.268ZM173.968 334.684C175.745 335.568 177.515 336.48 179.215 337.502C182.752 339.627 186.171 341.962 189.785 343.945C191.711 345.003 193.949 345.485 196.029 346.274C196.488 346.449 196.869 346.825 197.287 347.108C196.857 347.318 196.352 347.444 196.009 347.751C193.509 349.989 191.159 347.919 188.825 347.437C184.005 346.44 180.636 343.134 177.309 339.595C175.846 338.266 174.462 337.061 173.138 335.794C172.82 335.489 172.703 334.976 172.494 334.559C172.989 334.592 173.558 334.48 173.968 334.684ZM365.172 338.369C366.865 339.086 366.717 340.447 366.626 341.765C366.474 343.95 363.5 346.805 361.596 346.454C360.917 346.328 359.896 345.297 359.912 344.703C359.953 343.161 360.483 341.632 360.919 339.997C361.209 339.707 361.4 339.521 361.587 339.328C362.589 338.294 363.618 337.711 365.172 338.369ZM347.497 323.21C346.893 324.095 346.065 324.903 345.725 325.88C344.063 330.67 347.1 338.141 353.429 339.96C353.732 340.046 354.406 339.773 354.496 339.521C355.493 336.724 356.415 333.9 357.335 331.076C357.394 330.897 357.272 330.474 357.229 330.473C352.52 330.408 350.231 327.51 348.863 323.453C348.778 323.202 348.1 323.152 347.497 323.21ZM430.212 331.901C430.612 332.113 430.944 332.456 431.307 332.738C430.913 332.645 430.523 332.527 430.124 332.462C426.004 331.785 421.879 331.134 417.764 330.429C417.19 330.33 416.658 329.982 416.107 329.749C416.71 329.579 417.313 329.41 418.117 329.241C422.5 329.157 426.493 329.927 430.212 331.901ZM357.525 310.769C357.064 311.447 356.596 312.121 356.15 312.81C356.089 312.904 356.19 313.097 356.135 313.202C354.857 315.616 353.628 318.06 352.258 320.421C351.491 321.743 351.448 324.331 352.592 325.03C354.225 326.027 356 326.793 357.73 327.627C358.878 328.181 359.572 327.479 360.151 326.631C361.254 325.019 362.265 323.339 363.438 321.781C364.354 320.563 363.449 320.816 362.575 320.596C358.406 319.553 357.926 316.066 357.371 312.664C357.271 312.057 357.466 311.402 357.525 310.769ZM364.347 301.131C363.757 301.61 362.946 301.97 362.612 302.588C360.762 306.012 360.073 309.758 360.202 313.598C360.303 316.604 362.15 318.655 365.06 319.426C365.462 319.533 366.034 319.37 366.409 319.14C367.378 318.543 368.281 317.839 369.411 316.977C369.813 316.275 370.325 315.611 370.591 314.861C370.964 313.806 371.206 312.695 371.393 311.589C371.459 311.202 371.335 310.573 371.062 310.371C368.368 308.372 366.364 305.84 364.992 302.795C364.748 302.253 364.561 301.687 364.347 301.131ZM375.231 313.099L374.404 315.652C374.313 315.936 374.706 316.669 374.983 316.735C377.437 317.324 379.915 317.825 382.379 318.376C381.024 317.377 379.67 316.374 378.31 315.381C377.602 314.863 376.814 314.455 376.1 313.945C375.775 313.712 375.511 313.395 375.231 313.099ZM376.533 283.746C375.13 284.931 373.791 286.192 372.226 287.624C369.586 289.653 368.503 292.561 367.845 295.646C366.968 299.751 367.402 303.559 370.7 306.624C371.817 307.662 372.551 307.221 373.013 306.086C374.436 302.591 375.789 299.068 377.161 295.554C378.602 291.864 379.413 288.188 377.931 284.229C377.477 283.014 377.144 283.229 376.533 283.746ZM426.751 287.493C425 287.887 423.007 290.572 422.299 292.655C421.987 293.57 421.529 294.277 423.305 294.764C427.199 295.83 430.915 297.53 434.35 300.279C435.122 300.311 435.921 300.483 436.663 300.349C439.454 299.844 442.214 296.851 445.008 296.766C448.77 296.651 452.581 297.001 456.318 297.532C460.174 298.08 464.064 298.776 467.76 299.964C472.641 301.532 477.348 303.642 482.132 305.513C482.45 305.638 482.791 305.707 483.121 305.802C483.035 305.526 482.904 305.255 482.87 304.973C482.644 303.112 481.399 301.947 479.936 301.121C475.766 298.766 471.604 296.371 467.293 294.296C460.079 290.822 452.628 288.117 444.602 286.933C438.553 286.041 432.638 286.17 426.751 287.493ZM422.492 276.973C416.555 277.221 411.571 279.468 407.844 284.189C406.04 286.475 406.445 289.812 409.191 290.615C412.602 291.612 416.044 292.506 419.874 293.444C420.679 292.237 421.239 288.699 422.337 287.888C425.4 285.625 429.042 284.703 432.811 284.646C436.101 284.597 439.424 284.656 442.682 285.067C446.562 285.557 450.464 286.202 454.221 287.26C462.494 289.591 470.188 293.354 477.709 297.472C478.165 297.721 478.651 297.918 479.123 298.139C479.117 297.422 479.196 296.688 479.065 295.995C479.003 295.668 478.574 295.358 478.244 295.145C475.289 293.235 472.451 291.087 469.326 289.508C462.802 286.212 456.146 283.211 449.068 281.184C440.365 278.691 431.631 276.59 422.492 276.973ZM410.164 263.249C403.566 263.974 397.812 266.181 393.376 271.294C390.805 274.257 389.269 277.636 389.114 281.994C389.114 282.598 388.992 285.235 389.145 285.797C389.336 286.502 389.641 287.627 390.091 287.731C392.08 288.192 394.135 288.393 396.176 288.571C396.474 288.597 397.066 288.022 397.115 287.669C397.336 286.06 397.17 282.366 397.581 280.819C399.173 274.83 403.47 271.39 409.034 269.345C413.708 267.628 418.571 267.595 423.509 267.648C430.838 267.727 437.998 268.786 445.044 270.596C447.899 271.329 450.588 272.72 453.329 273.868C453.684 274.016 453.895 274.506 454.172 274.838C453.762 274.776 453.331 274.775 452.945 274.642C443.625 271.424 433.984 269.916 424.185 269.352C419.379 269.075 414.56 269.571 410 271.014C404.96 272.609 400.725 275.466 399.007 280.939C398.079 283.894 399.413 288.506 402.295 289.571C403.978 290.193 404.581 289.412 405.236 288.042C406.07 286.299 406.949 282.48 408.221 281.064C412.229 276.6 417.647 275.121 423.357 275.044C427.138 274.993 430.976 275.52 434.707 276.221C440.319 277.275 445.956 278.395 451.41 280.051C459.571 282.528 467.37 285.954 474.57 290.622C475.086 290.957 475.759 291.049 476.358 291.253C476.176 290.662 476.064 290.037 475.8 289.484C472.525 282.611 468.528 276.238 462.723 271.184C459.32 268.22 455.441 266.016 451.046 264.942C447.859 264.163 444.645 263.969 441.287 264.39C438.125 264.785 434.844 264.257 431.618 264.092C430.062 264.012 428.499 263.915 426.961 263.684C421.376 262.845 415.809 262.629 410.164 263.249ZM387.288 275.762C387.062 275.86 386.805 275.918 386.613 276.062C385.439 276.946 384.386 278.074 383.089 278.695C380.989 279.701 381.367 281.298 381.651 282.97C381.692 283.211 381.852 283.438 381.867 283.677C381.948 284.919 382 286.164 382.061 287.407C382.342 289.15 384.484 289.15 385.897 288.82C386.165 287.795 386.544 286.785 386.679 285.743C386.993 283.315 387.196 278.873 387.426 276.434C387.446 276.217 387.337 275.986 387.288 275.762ZM309.894 163.518C310.266 163.968 309.984 165.001 309.903 165.768C309.851 166.255 309.489 166.736 309.521 167.202C309.888 172.599 310.442 177.988 310.663 183.39C310.861 188.206 310.696 193.037 310.715 197.862C310.717 198.497 310.788 199.663 310.939 199.681C312.124 199.828 313.338 199.772 314.539 199.71C314.616 199.706 314.742 199.122 314.711 198.822C314.618 197.936 314.418 197.06 314.33 196.173C313.781 190.633 313.074 185.102 312.769 179.549C312.508 174.806 312.625 170.033 312.811 165.283C312.839 164.555 314.091 163.373 314.864 163.299C315.889 163.2 316.48 164.219 316.368 165.501C316.227 167.097 316.214 168.725 316.356 170.32C316.835 175.732 317.398 198.172 317.585 199.504C317.604 199.637 318.253 199.754 318.609 199.755C328.459 199.768 338.31 199.845 348.159 199.729C352.54 199.677 356.915 199.211 361.295 198.968C364.32 198.8 367.364 198.844 370.372 198.53C378.764 197.655 387.168 197.329 395.605 197.286C399.863 197.265 404.113 196.49 408.374 196.161C414.301 195.702 420.23 195.206 426.168 194.975C433.41 194.694 440.663 194.648 447.911 194.564C449.018 194.552 449.526 194.487 449.467 193.122C449.238 187.754 449.176 182.379 449.021 177.008C448.915 173.31 448.775 169.613 448.614 165.917C448.567 164.852 448.88 164.351 450.055 164.351C451.273 164.351 451.434 164.945 451.458 165.963C451.542 169.527 451.306 173.162 451.935 176.635C452.876 181.829 452.486 187.011 452.648 192.199C452.709 194.182 453.64 194.917 455.52 194.545C456.395 194.372 457.284 194.154 458.166 194.153C476.526 194.131 494.886 194.103 513.246 194.155C519.355 194.172 535.465 194.384 541.573 194.552C543.195 194.596 544.816 194.774 546.431 194.949C548.139 195.134 549.477 196.897 549.491 198.999C549.517 202.617 549.498 206.236 549.498 209.854C549.498 210.189 549.481 210.525 549.502 210.859C549.563 211.85 550.032 213.45 549.631 213.709C548.641 214.348 547.261 214.558 546.024 214.613C538.499 214.942 520.971 215.259 513.442 215.427C503.783 215.643 494.121 215.729 484.461 215.846C472.187 215.994 459.913 216.095 447.64 216.262C442.669 216.33 437.699 216.509 432.73 216.657C428.764 216.775 424.8 216.939 420.835 217.051C415.463 217.203 410.091 217.337 404.719 217.454C397.94 217.602 391.16 217.72 384.381 217.862C378.406 217.987 372.431 218.128 366.456 218.262C360.481 218.396 354.504 218.473 348.531 218.681C343.145 218.869 337.762 219.167 332.381 219.48C328.87 219.685 325.357 219.925 321.861 220.293C317.584 220.743 313.329 221.39 309.055 221.866C305.958 222.211 302.85 222.511 299.739 222.666C293.086 222.997 286.422 223.137 279.772 223.521C275.841 223.748 251.934 224.356 248.005 224.659C246.738 224.757 245.414 224.534 244.166 224.242C243.659 224.123 242.984 223.475 242.906 222.985C242.525 220.568 242.285 218.126 242.061 215.687C241.876 213.67 241.644 211.641 241.694 209.624C241.732 208.098 242.151 206.637 241.808 205.029C241.707 204.555 243.445 203.223 244.461 203.066C247.665 202.571 270.935 202.52 274.164 202.159C278.24 201.704 282.3 201.108 286.369 200.585C286.764 200.534 287.171 200.585 287.571 200.568C293.759 200.302 299.945 199.996 306.135 199.801C307.2 199.768 307.098 199.283 307.093 198.59C307.075 195.909 307.033 193.228 307.101 190.549C307.166 187.923 307.354 185.3 307.488 182.475C306.967 178.537 306.347 174.809 305.963 171.057C305.74 168.874 305.769 166.64 305.961 164.454C306.014 163.849 306.981 163.025 307.664 162.858C308.346 162.692 309.468 163.002 309.894 163.518ZM513.977 196.974C494.736 197.049 475.495 197.198 456.254 197.362C446.46 197.445 436.663 197.515 426.874 197.801C422.141 197.939 417.426 198.592 412.698 198.953C406.971 199.39 401.239 199.769 395.509 200.166C393.422 200.311 391.332 200.432 389.244 200.57C383.179 200.971 377.119 201.479 371.049 201.746C364.946 202.015 358.833 202.044 352.322 202.178C350.769 202.312 349.218 202.545 347.665 202.565C334.923 202.726 322.18 202.787 309.44 203.011C304.053 203.106 298.673 203.513 293.29 203.789C290.933 203.909 288.572 204.004 286.221 204.198C280.075 204.705 253.935 205.276 247.79 205.786C246.339 205.906 245.507 206.267 245.627 208.052C245.897 212.075 246 216.112 246.033 220.145C246.043 221.328 246.371 221.59 247.47 221.496C251.174 221.182 274.884 220.939 278.593 220.676C282.434 220.403 286.275 220.102 290.119 219.879C295.366 219.576 300.618 219.346 305.865 219.053C306.619 219.011 307.359 218.766 308.112 218.67C311.361 218.255 314.608 217.812 317.865 217.471C321.03 217.14 324.204 216.867 327.38 216.665C334.247 216.226 341.113 215.761 347.987 215.473C354.157 215.215 360.337 215.183 366.513 215.044C372.286 214.915 378.06 214.768 383.834 214.646C390.679 214.501 397.525 214.358 404.371 214.245C413.561 214.094 422.753 213.994 431.943 213.83C436.512 213.748 441.079 213.578 445.646 213.434C449.544 213.312 453.44 213.12 457.339 213.045C465.993 212.879 474.648 212.757 483.303 212.635C493.566 212.491 503.83 212.429 514.091 212.209C521.286 212.054 538.477 211.707 545.667 211.389C546.018 211.374 546.633 210.825 546.639 210.514C546.71 207.098 546.682 203.681 546.685 200.263C546.688 198.815 545.85 197.998 544.544 197.783C543.011 197.53 541.446 197.415 539.891 197.366C534.587 197.198 519.281 196.954 513.977 196.974ZM458.3 161.384C458.785 168.386 459.292 175.388 459.914 182.379C460.115 184.638 460.627 186.876 461.102 189.101C461.512 191.025 460.378 192.375 457.973 192.427C457.47 190.955 456.892 189.608 456.703 188.208C456.313 185.327 455.998 182.423 455.889 179.519C455.664 173.494 455.592 167.463 455.462 161.434C455.443 160.515 455.261 159.575 456.742 159.523C458.225 159.471 458.223 160.269 458.3 161.384Z" fill="#00160A"/>
<path fill-rule="evenodd" clip-rule="evenodd" d="M386.753 559.961C378.805 579.876 346.482 555.61 342.431 541.329C340.912 535.974 351.319 525.003 356.527 529.343C365.796 537.068 365.131 549.318 379.381 552.386C381.504 552.843 386.065 552.776 388.128 553.368C389.189 553.673 388.731 555.871 386.753 559.961Z" fill="#177FAC"/>
<path fill-rule="evenodd" clip-rule="evenodd" d="M516.631 463.14C517.56 467.626 518.371 471.912 518.275 476.342C518.218 478.963 518.478 481.592 518.647 484.214C519.128 491.673 515.689 496.909 509.654 500.959C505.514 503.737 501.774 507.106 497.683 509.965C494.246 512.367 490.639 514.557 486.968 516.589C479.548 520.696 471.947 524.542 468.574 533.118C467.01 537.094 464.933 540.975 464.104 545.103C463.145 549.871 464.021 554.613 468.408 557.871C468.559 557.983 468.632 558.205 468.786 558.309C469.467 558.767 470.201 559.581 470.845 559.52C471.343 559.474 471.806 558.354 472.162 557.649C472.955 556.076 472.229 554.687 471.872 553.104C471.332 550.708 471.755 548.09 471.827 545.568C471.835 545.295 472.225 545.033 472.438 544.766C472.559 545.085 472.759 545.397 472.79 545.725C472.951 547.476 472.907 549.265 473.259 550.973C473.516 552.216 474.149 553.437 474.848 554.516C475.573 555.635 478.012 555.101 478.411 553.748C479.15 551.245 479.021 548.73 478.482 546.169C478.209 544.873 478.429 543.464 478.509 542.111C478.521 541.91 478.99 541.736 479.248 541.549C479.378 541.793 479.589 542.051 479.618 542.279C480.813 551.528 482.561 551.528 483.278 551.801C483.996 552.074 484.914 551.706 485.248 551.528C485.67 551.304 485.985 550.567 486.041 550.02C486.252 547.939 485.999 545.749 486.559 543.782C487.282 541.246 488.381 538.736 489.775 536.5C490.699 535.016 492.392 533.991 493.798 532.831C497.457 529.815 501.256 527.009 505.866 525.583C509.136 524.572 512.432 523.646 515.705 522.646C521.353 520.919 527.104 519.458 532.61 517.355C541.195 514.077 547.593 508.389 549.543 498.987C550.612 493.831 549.789 488.635 547.842 483.781C546.3 479.935 544.206 476.311 542.374 472.58C542.187 472.201 542.116 471.765 541.991 471.355C542.323 471.571 542.712 471.732 542.977 472.011C547.651 476.913 550.743 482.724 552.173 489.292C553.704 496.33 554.199 503.451 550.737 510.14C549.978 511.606 548.431 512.787 547.017 513.768C542.751 516.729 537.986 518.727 533.107 520.434C527.429 522.422 521.842 524.925 515.993 526.098C510.351 527.23 505.458 529.839 500.266 531.888C497.076 533.146 495.341 536.073 492.841 538.106C490.203 540.25 489.444 542.877 489.68 546.046C489.749 546.979 489.653 547.923 489.697 548.859C489.976 554.88 486.985 555.423 482.452 553.636C482.256 553.559 481.697 553.817 481.681 553.96C481.307 557.355 479.368 559.017 476.271 557.909C474.938 557.433 475.005 558.329 474.874 558.643C473.511 561.906 470.174 562.961 467.886 560.437C465.511 557.819 463.307 554.919 461.684 551.801C460.879 550.254 461.25 547.887 461.609 545.989C462.223 542.746 463.054 539.513 464.145 536.398C465.589 532.276 467.958 528.671 470.71 525.227C473.52 521.712 477.022 519.193 480.813 517.068C486.018 514.15 491.145 511.125 495.992 507.655C497.978 506.233 499.664 504.398 501.618 502.924C504.196 500.979 506.907 499.21 509.554 497.357C513.166 494.828 515.637 491.805 515.517 486.958C515.436 483.72 516.489 480.466 516.558 477.208C516.626 473.977 516.055 470.735 515.845 467.492C515.743 465.935 515.816 464.366 515.838 462.802C515.842 462.524 515.986 462.248 516.066 461.971C516.254 462.294 516.443 462.616 516.631 463.14Z" fill="#00160A"/>
<path fill-rule="evenodd" clip-rule="evenodd" d="M120.565 245.202C120.754 244.789 121.108 244.388 121.11 244.39C125.244 248.016 127.856 252.53 129.504 257.786C130.214 260.049 131.779 262.116 133.245 264.053C136.011 267.705 138.997 271.192 141.846 274.782C141.959 274.924 141.715 275.59 141.472 275.736C139.837 276.718 136.916 276.195 135.157 274.419C133.656 272.904 132.337 271.198 131.021 269.512C129.047 266.98 126.282 265.981 123.311 265.303C118.586 264.225 115.067 261.322 112.135 257.658C107.187 251.478 105.117 244.161 104.099 236.48C103.853 234.622 103.466 232.647 103.835 230.87C104.597 227.197 107.879 225.189 111.987 226.394C119.359 228.557 126.693 230.967 133.802 233.864C138.423 235.747 140.267 240.106 141.129 244.952C141.857 249.044 140.951 252.733 139.334 256.368C138.775 257.627 138.676 257.58 137.851 256.401C136.241 254.098 135.832 251.384 136.331 248.841C137.425 243.254 134.903 238.847 130.457 237.175C125.296 235.235 120.15 233.225 114.892 231.583C109.688 229.958 109.76 230.309 110.722 235.355C112.025 242.196 114.526 248.864 117.057 255.395C118.407 258.878 121.197 261.495 125.148 262.553C126.553 262.929 126.36 262.142 126.16 261.574C125.213 258.89 124.205 256.223 123.106 253.597C121.993 250.941 120.424 248.443 120.565 245.202Z" fill="#FFB61D"/>
<path fill-rule="evenodd" clip-rule="evenodd" d="M528.594 456.807C523.444 455.217 518.608 455.932 513.782 457.837C512.649 458.284 511.063 458.027 509.845 457.619C509.284 457.43 511.047 454.416 512.46 453.878C514.139 453.24 515.864 452.538 517.623 452.333C522.986 451.707 527.955 453.137 532.677 455.642C534.752 456.743 536.943 457.628 539.006 458.749C539.89 459.229 540.622 460.022 541.339 460.755C541.539 460.959 541.582 461.689 541.448 461.771C541.117 461.974 540.574 462.11 540.234 461.976C538.11 461.134 536.01 460.23 533.918 459.308C532.165 458.535 530.435 457.709 528.594 456.807Z" fill="#00160A"/>
<path fill-rule="evenodd" clip-rule="evenodd" d="M369.764 171.116C366.277 173.531 362.974 175.984 359.48 178.124C355.666 180.46 351.699 182.553 347.731 184.623C347.164 184.919 345.78 184.743 345.541 184.336C345.125 183.625 344.971 182.649 346.308 182.016C348.666 180.9 350.911 179.515 353.106 178.092C356.493 175.897 359.787 173.559 363.143 171.316C364.968 170.096 366.76 168.776 368.73 167.849C369.534 167.471 371.391 167.663 371.693 168.2C372.595 169.806 371.19 170.512 369.764 171.116Z" fill="#E7EAEE"/>
<path fill-rule="evenodd" clip-rule="evenodd" d="M394.695 423.232C395.868 422.192 396.927 421.236 398.021 420.323C398.341 420.057 398.763 419.913 399.138 419.713C399.299 420.06 399.554 420.394 399.606 420.757C399.951 423.156 399.994 425.702 402.221 427.295C403.167 427.971 404.274 428.677 405.381 428.827C409.497 429.385 414.365 428.961 417.177 424.55C418.317 422.763 417.966 420.944 418.147 419.105C418.195 418.619 418.524 417.84 418.859 417.76C420.213 417.438 419.736 418.592 419.698 419.148C419.545 421.364 420.111 423.551 418.609 425.744C416.794 428.394 414.402 430.085 411.508 430.445C408.672 430.797 405.681 431.003 402.795 429.815C400.21 428.751 398.97 426.879 398.41 424.328C398.335 423.989 398.196 423.664 398.086 423.332C397.823 423.504 397.561 423.678 397.295 423.848C394.495 425.635 391.833 427.787 388.265 427.708C387.754 427.697 387.257 427.053 386.754 426.702C387.211 426.517 387.672 426.341 388.124 426.145C390.283 425.21 392.438 424.27 394.695 423.232Z" fill="#00160A"/>
<path fill-rule="evenodd" clip-rule="evenodd" d="M479.94 172.322C482.286 170.245 484.482 168.207 486.808 166.332C487.431 165.829 488.446 165.695 489.295 165.645C489.676 165.622 490.421 166.22 490.425 166.543C490.433 167.16 490.201 167.981 489.761 168.362C488.72 169.264 487.413 169.859 486.366 170.756C482.944 173.685 479.631 176.742 476.163 179.613C475.688 180.007 474.355 179.929 473.807 179.533C473.069 178.999 473.354 178.019 474.077 177.389C475.988 175.723 477.917 174.077 479.94 172.322Z" fill="#E7EAEE"/>
<path fill-rule="evenodd" clip-rule="evenodd" d="M414.901 529.888C412.938 530.156 411.183 530.546 409.411 530.66C407.324 530.795 405.209 530.812 403.13 530.623C402.459 530.562 401.861 529.689 401.229 529.188C401.847 528.885 402.437 528.417 403.087 528.307C406.539 527.721 409.99 527.058 413.471 526.75C416.411 526.491 419.392 526.649 422.352 526.714C422.69 526.721 423.264 527.308 423.275 527.641C423.286 527.978 422.781 528.573 422.422 528.643C419.994 529.119 417.544 529.486 414.901 529.888Z" fill="#00160A"/>
<path fill-rule="evenodd" clip-rule="evenodd" d="M270.648 170.915C271.462 170.278 272.106 169.542 272.908 169.266C273.615 169.023 275.075 169.074 275.193 169.382C275.506 170.196 275.653 171.107 274.522 171.969C271.078 174.593 267.838 177.485 264.508 180.261C264.174 180.539 263.786 180.908 263.401 180.936C262.726 180.985 261.674 181.032 261.438 180.661C261.115 180.152 261.103 178.909 261.481 178.576C264.433 175.975 267.51 173.517 270.648 170.915Z" fill="#E7EAEE"/>
<path fill-rule="evenodd" clip-rule="evenodd" d="M488.887 180.063C491.599 177.685 494.359 175.563 497 173.303C497.961 172.481 498.945 171.856 499.857 172.839C500.666 173.71 500.173 174.767 499.251 175.539C496.612 177.747 494.042 180.043 491.327 182.152C490.802 182.56 489.745 182.282 488.933 182.321C488.918 181.635 488.902 180.949 488.887 180.063Z" fill="#E7EAEE"/>
<path fill-rule="evenodd" clip-rule="evenodd" d="M397.711 431.675C398.415 432.581 399.525 433.398 399.507 434.189C399.477 435.515 399.086 436.898 397.554 437.74C395.296 438.982 393.379 438.492 391.527 437.125C389.912 435.933 389.996 433.793 391.623 431.531C392.3 430.59 394.927 430.213 396.105 430.865C396.589 431.133 397.107 431.34 397.711 431.675ZM397.208 432.781C396.657 432.498 396.13 432.141 395.549 431.946C394.2 431.493 393.129 431.817 392.399 433.149C391.685 434.451 392.317 435.387 393.282 436.018C393.921 436.436 394.887 436.667 395.627 436.535C396.435 436.391 397.435 435.898 397.816 435.245C398.11 434.741 397.576 433.754 397.208 432.781Z" fill="#00160A"/>
<path fill-rule="evenodd" clip-rule="evenodd" d="M373.786 181.169C375.494 180.131 377.056 179.094 378.739 178.323C379.182 178.121 380.555 178.753 380.55 178.981C380.53 179.882 380.415 181.146 379.82 181.599C378.3 182.755 376.563 183.694 374.788 184.41C374.131 184.674 372.637 184.319 372.379 183.812C371.84 182.752 372.38 181.68 373.786 181.169Z" fill="#E7EAEE"/>
</svg>
