<svg width="207" height="26" viewBox="0 0 207 26" fill="none" xmlns="http://www.w3.org/2000/svg">
<g clip-path="url(#clip0_7007_394)">
<path fill-rule="evenodd" clip-rule="evenodd" d="M22.0989 3.72051C21.1919 2.82884 20.1557 2.0721 19.0147 1.47388L17.3462 5.22928C17.9643 5.57273 18.5315 5.99168 19.0497 6.46912L22.0989 3.71957V3.72051Z" fill="#BCE3FA"/>
<path fill-rule="evenodd" clip-rule="evenodd" d="M25.0936 8.22338C24.6207 7.02317 23.9724 5.91259 23.1853 4.9209L20.1313 7.67045C20.5494 8.2281 20.9033 8.84048 21.1874 9.49343L25.0926 8.22338H25.0936Z" fill="#7CCDF4"/>
<path fill-rule="evenodd" clip-rule="evenodd" d="M25.9895 13.5525C25.9942 13.3685 25.9999 13.1836 25.9999 12.9996C25.9999 11.8843 25.8602 10.7982 25.5913 9.76221L21.686 11.0275C21.8304 11.6654 21.905 12.3221 21.905 12.9996V13.1241L25.9905 13.5525H25.9895Z" fill="#00A9E2"/>
<path fill-rule="evenodd" clip-rule="evenodd" d="M24.6452 18.7874C25.2029 17.6617 25.6068 16.4417 25.8211 15.1613L21.7356 14.7329C21.5959 15.4302 21.377 16.103 21.0825 16.7352L24.6442 18.7874H24.6452Z" fill="#007BBA"/>
<path fill-rule="evenodd" clip-rule="evenodd" d="M12.9973 26C17.5206 26 21.5013 23.6892 23.8324 20.1876L20.2754 18.1354C18.6616 20.4169 16.0059 21.9059 12.9973 21.9059C8.08034 21.9059 4.09491 17.9165 4.09491 13.0005C4.09491 8.08449 8.08034 4.0998 12.9973 4.0998C14.0033 4.0998 14.9697 4.26398 15.8672 4.57253L17.5414 0.817129C16.1267 0.288732 14.5969 0 12.9982 0C5.81818 0 0 5.82276 0 12.9995C0 20.1763 5.81819 25.9991 12.9973 25.9991V26Z" fill="#2C4268"/>
<path d="M14.1926 9.78196C14.4766 9.6876 14.9693 9.57248 15.4327 9.55267C15.8309 9.53757 16.2348 9.5923 16.5538 9.77724L19.4832 11.4653C19.8522 11.6795 19.9815 12.1475 19.7673 12.5164L16.2452 18.6175C16.031 18.9865 15.5629 19.1157 15.1939 18.9015L12.2598 17.2078C12.24 17.1975 12.1456 17.1975 12.0154 17.2031C11.7313 17.2135 11.3972 17.2824 11.1037 17.3579C10.6951 17.4626 10.277 17.2182 10.1675 16.8049C10.1128 16.5907 10.1524 16.3766 10.2619 16.202L13.7688 10.1254C13.8689 9.95652 14.0227 9.8414 14.1926 9.78196ZM15.4931 11.0926C15.309 11.0973 15.1099 11.1275 14.9447 11.1671L12.3391 15.6745C12.5929 15.6991 12.8326 15.7642 13.0318 15.8783L15.2987 17.188L18.0534 12.4164L15.7818 11.1067C15.7469 11.0869 15.6327 11.0869 15.4931 11.0916V11.0926Z" fill="#2C4268"/>
<path d="M13.6152 10.4C13.5652 10.2358 13.4954 10.0509 13.4057 9.88197C13.3406 9.76214 13.2811 9.66306 13.2462 9.64325L10.9793 8.33357L8.22456 13.1052L10.4914 14.4149C10.6906 14.529 10.8652 14.6989 11.0095 14.9084L13.6152 10.4009V10.4ZM14.7704 9.17429C14.9846 9.57814 15.129 10.066 15.1884 10.3594C15.2234 10.534 15.1988 10.7227 15.1035 10.8925L11.5966 16.9691C11.5022 17.1484 11.3323 17.2975 11.1181 17.3522C10.7094 17.4664 10.2857 17.2276 10.1715 16.8191C10.0866 16.5256 9.97709 16.1963 9.85251 15.9529C9.79306 15.8387 9.74304 15.7585 9.71756 15.7434L6.78818 14.0497C6.42483 13.8402 6.2946 13.3722 6.50883 13.0033L10.0309 6.89652C10.2451 6.52759 10.7132 6.40304 11.0822 6.61723L14.0163 8.30527C14.3306 8.48926 14.5788 8.81291 14.7685 9.17146L14.7704 9.17429Z" fill="#2C4268"/>
<path d="M38.6541 17.4895V23.4874H34V2.51025H50.7203C56.6916 2.51025 58.5599 4.32546 58.5599 9.27765V11.0929C58.5599 16.1064 56.8138 17.4908 50.7203 17.4908H38.6554L38.6541 17.4895ZM53.9032 9.46173C53.9032 7.18505 53.1065 6.5395 50.5956 6.5395H38.6529V13.7057H50.6567C53.1065 13.7057 53.9032 13.1215 53.9032 10.9062V9.46045V9.46173Z" fill="#2C4268"/>
<path d="M66.2137 23.4874C61.4362 23.4874 60.1508 21.7962 60.1508 19.0887V17.5202C60.1508 14.7207 61.314 13.1215 65.9083 13.1215H78.1883V12.7521C78.1883 10.6301 77.3916 10.0766 75.3706 10.0766H70.8386V6.81689H75.3706C80.6687 6.81689 82.7508 8.72414 82.7508 12.9681V17.0281C82.7508 21.8575 81.067 23.4874 75.1873 23.4874H66.215H66.2137ZM78.187 15.9517H66.397C65.3254 15.9517 64.6827 16.3212 64.6827 17.6429V18.7806C64.6827 19.949 65.3865 20.3491 66.551 20.3491H75.1249C77.2681 20.3491 78.187 19.857 78.187 17.3655V15.9505V15.9517Z" fill="#2C4268"/>
<path d="M103.052 23.4874V14.1979C103.052 11.4291 102.286 10.7528 99.3476 10.7528H94.3867C91.5079 10.7528 90.682 11.4291 90.682 14.1979V23.4874H86.1195V14.0445C86.1195 8.72286 87.9267 6.81689 94.0813 6.81689H99.6237C105.809 6.81689 107.616 8.72414 107.616 14.0445V23.4874H103.054H103.052Z" fill="#2C4268"/>
<path d="M116.802 23.4874C112.025 23.4874 110.739 21.7962 110.739 19.0887V17.5202C110.739 14.7207 111.902 13.1215 116.497 13.1215H128.777V12.7521C128.777 10.6301 127.98 10.0766 125.959 10.0766H121.427V6.81689H125.959C131.257 6.81689 133.339 8.72414 133.339 12.9681V17.0281C133.339 21.8575 131.656 23.4874 125.776 23.4874H116.804H116.802ZM128.775 15.9517H116.986C115.914 15.9517 115.271 16.3212 115.271 17.6429V18.7806C115.271 19.949 115.975 20.3491 117.139 20.3491H125.713C127.857 20.3491 128.775 19.857 128.775 17.3655V15.9505V15.9517Z" fill="#2C4268"/>
<path d="M144.607 23.4873C138.453 23.4873 136.646 21.5801 136.646 16.2904V14.0457C136.646 8.72408 138.453 6.81812 144.607 6.81812H156.611V10.7553H144.76C141.881 10.7553 141.208 11.4622 141.208 14.2004V16.169C141.208 18.8138 141.912 19.614 144.76 19.614H156.642V23.4899H144.607V23.4873Z" fill="#2C4268"/>
<path d="M164.358 16.8428V17.6123C164.358 19.6423 164.97 20.0117 167.114 20.0117H172.504V23.4875H167.114C161.847 23.4875 159.795 21.5802 159.795 17.1508V13.3057C159.795 8.44553 161.479 6.81567 167.328 6.81567H175.351C180.097 6.81567 181.414 8.72292 181.414 11.3678V16.8428H164.358ZM176.853 11.7372C176.853 10.6302 176.363 10.3528 174.985 10.3528H167.391C165.093 10.3528 164.359 10.5995 164.359 12.9976V13.8899H176.853V11.7372Z" fill="#2C4268"/>
<path d="M190.081 23.4874C185.303 23.4874 184.018 21.7962 184.018 19.0887V17.5202C184.018 14.7207 185.181 13.1215 189.776 13.1215H202.056V12.7521C202.056 10.6301 201.259 10.0766 199.238 10.0766H194.706V6.81689H199.238C204.536 6.81689 206.618 8.72414 206.618 12.9681V17.0281C206.618 21.8575 204.934 23.4874 199.055 23.4874H190.082H190.081ZM202.054 15.9517H190.264C189.193 15.9517 188.55 16.3212 188.55 17.6429V18.7806C188.55 19.949 189.254 20.3491 190.418 20.3491H198.992C201.135 20.3491 202.054 19.857 202.054 17.3655V15.9505V15.9517Z" fill="#2C4268"/>
</g>
<defs>
<clipPath id="clip0_7007_394">
<rect width="206.618" height="26" fill="white"/>
</clipPath>
</defs>
</svg>
