<svg width="750" height="750" viewBox="0 0 750 750" fill="none" xmlns="http://www.w3.org/2000/svg">
<rect width="750" height="750" fill="white"/>
<path fill-rule="evenodd" clip-rule="evenodd" d="M300.673 570.676C405.427 600.135 456.399 487.086 546.154 495.687C595.286 500.395 693.219 524.258 693 350.432C692.453 238.211 589.016 210.109 482.351 267.661C450.964 279.936 426.184 276.132 399.278 263.936C372.373 251.739 337.77 197.293 272.553 186.092C76.2944 152.384 -91.6305 460.355 300.673 570.676Z" fill="#177FAC"/>
<path fill-rule="evenodd" clip-rule="evenodd" d="M549.609 288.346C551.574 287.39 555.1 289.243 553.055 292.225C548.525 298.829 566.042 312.02 560.419 300.396C559.818 299.153 556.735 290.558 561.097 294.996C565.46 299.433 571.542 319.042 567.608 325.798C564.156 331.727 555.02 334.548 542.548 334.882L541.987 334.894L541.721 334.91C534.369 335.252 528.794 330.702 525.196 321.841L525.023 321.409C521.38 312.134 522.379 304.699 528.27 299.686C528.377 299.595 528.492 299.513 528.612 299.441L528.798 299.342L549.609 288.346Z" fill="white"/>
<path fill-rule="evenodd" clip-rule="evenodd" d="M152.426 114.765C151.568 113.548 150.178 112.847 148.694 113.029C147.174 113.213 145.904 114.27 145.441 115.728L145.318 116.118C145.224 116.406 145.113 116.735 144.982 117.106C144.609 118.164 144.157 119.339 143.623 120.602C142.105 124.194 140.236 127.779 138.005 131.114C133.192 138.309 127.393 143.318 120.595 145.247C119.532 145.548 118.915 146.654 119.217 147.717C119.37 148.256 129.298 153.218 139.434 151.967C149.265 150.754 159.314 143.342 159.395 142.838L159.518 141.788L159.553 141.436C160.257 133.799 158.921 125.174 153.779 116.818C153.352 116.123 152.901 115.439 152.426 114.765Z" fill="#E7EAEE"/>
<path fill-rule="evenodd" clip-rule="evenodd" d="M172.884 116.986L172.832 117.39C172.119 122.56 170.124 129.759 166.514 135.19C162.071 141.876 155.8 146.989 149.498 150.284C140.406 155.038 130.511 155.908 120.767 149.732L120.337 149.456C115.217 146.107 111.331 144.494 106 145.825C100.668 147.156 98.079 151.039 95.7776 154.641L95.6721 154.794C95.3032 155.286 94.7635 155.628 94.1553 155.748L84.0469 157.349L87.728 161.922C88.8359 163.308 89.6235 164.308 90.0906 164.92L94.1366 170.25C106.195 186.065 119.172 201.166 144.478 195.938L145.336 195.754C152.04 194.264 157.661 198.267 164.713 204.166L166.22 205.435C168.085 207.013 173.725 211.985 176.033 214.378L176.787 215.17L177.483 215.918C177.628 216.076 177.766 216.228 177.897 216.374L178.617 217.185L179.059 216.663C183.832 210.917 186.822 202.164 188.37 194.944C188.954 192.216 189.29 189.604 189.43 187.193L189.447 186.88C189.483 186.175 189.499 185.56 189.502 185.046V184.665L188.781 184.876C180.435 187.243 171.044 187.479 161.881 186.422C159.668 186.166 183.949 166.5 178.965 141.031C177.829 135.226 177.108 127.465 175.124 122.197C174.498 120.536 173.85 119.017 173.207 117.658L172.884 116.986Z" fill="white"/>
<path fill-rule="evenodd" clip-rule="evenodd" d="M550.665 291.491L529.891 301.59C524.911 305.827 524.064 312.129 527.35 320.495C528.503 323.431 531.388 330.423 531.388 327.676C531.388 326.819 550.665 314.218 554.364 315.451C557.783 316.591 551.64 306.315 549.918 301.59L550.665 291.233L551.236 290.201" fill="#E7EAEE"/>
<path fill-rule="evenodd" clip-rule="evenodd" d="M522.948 299.07C524.329 299.07 516.505 302.749 516.908 309.535C517.311 316.321 522.614 328.828 521.325 329.321C520.035 329.813 517.59 326.167 517.097 324.878C514.03 316.853 513.45 313.578 513.559 308.898C513.703 302.771 516.925 299.07 522.948 299.07Z" fill="#E7EAEE"/>
<ellipse cx="557.762" cy="305.792" rx="5.40016" ry="12.1992" fill="#E7EAEE"/>
<path fill-rule="evenodd" clip-rule="evenodd" d="M180.567 434.416C180.567 413.249 182.919 404.045 208.173 392.493C259.933 371.572 259.933 370.766 359.093 332.428C385.317 322.342 440.603 346.503 464.644 336.377C480.671 329.627 495.658 324.614 508.9 317.919C510.182 326.292 518.471 340.468 521.39 342.905C505.884 346.159 490.885 351.192 476.393 358.002C445.064 372.724 463.629 368.712 414.006 415.509C409.8 419.474 394.347 428.516 372.002 437.935C372.002 437.935 327.002 431.892 308.954 424.385C290.586 416.745 262.754 392.493 262.754 392.493C262.754 392.493 230.294 413.67 211.633 423.189C202.898 427.644 180.567 434.416 180.567 434.416Z" fill="white"/>
<path fill-rule="evenodd" clip-rule="evenodd" d="M180.567 423.416C180.567 418.447 180.042 414.979 180.567 411.144C182.278 398.64 188.984 392.243 208.311 383.402C260.071 362.481 259.933 359.766 359.093 321.428C385.317 311.342 440.602 335.503 464.643 325.377C480.671 318.627 495.658 313.614 508.9 306.919C508.937 307.159 507.559 318.601 507.559 318.601C507.559 318.601 474.871 335.863 453.248 339.523C430.273 343.412 398.717 325.377 367.208 334.247C319.223 347.755 208.646 390.211 195.565 400.851C185.287 409.211 180.567 423.416 180.567 423.416Z" fill="#E7EAEE"/>
<path fill-rule="evenodd" clip-rule="evenodd" d="M152.426 114.765C151.568 113.548 150.178 112.847 148.694 113.029C147.174 113.213 145.904 114.27 145.441 115.728L145.318 116.118C145.224 116.406 145.113 116.735 144.982 117.106C144.609 118.164 144.157 119.339 143.623 120.602C142.105 124.194 140.236 127.779 138.005 131.114C133.192 138.309 127.393 143.318 120.595 145.247C119.532 145.548 118.915 146.654 119.217 147.717C119.518 148.779 136.036 141.253 141.33 133.338C143.713 129.775 145.697 125.97 147.308 122.16C147.793 121.01 148.216 119.927 148.579 118.928L148.755 118.435C148.897 118.033 149.019 117.672 149.122 117.353C149.148 117.126 149.173 117.05 149.195 117.125C160.653 124.963 156.149 144.417 157.249 144.511C158.3 144.601 159.23 143.862 159.395 142.838L159.518 141.788L159.553 141.436C160.257 133.799 158.921 125.174 153.779 116.818C153.352 116.123 152.901 115.439 152.426 114.765Z" fill="#E7EAEE"/>
<path fill-rule="evenodd" clip-rule="evenodd" d="M176.283 114.706L176.535 115.156L176.843 115.735C177.029 116.091 177.237 116.504 177.464 116.971C178.25 118.587 179.043 120.417 179.803 122.435C181.943 128.115 183.438 134.246 183.949 140.632C184.642 149.299 183.391 157.479 180.222 164.92L179.951 165.545C177.377 171.357 173.627 176.683 168.759 181.462L168.276 181.929L168.686 181.949C175.697 182.243 182.63 181.616 188.724 179.673C190.031 179.256 191.456 179.471 192.582 180.254C193.706 181.036 194.404 182.294 194.474 183.661L194.49 184.085L194.5 184.646V184.861C194.5 185.644 194.477 186.521 194.421 187.483C194.268 190.138 193.9 193.002 193.259 195.992C191.448 204.438 187.828 212.35 181.911 219.016C181.125 219.901 180.021 220.431 178.846 220.494L178.575 220.5C177.321 220.476 176.175 219.958 175.361 219.073L174.765 218.38L174.473 218.048L173.852 217.358L173.172 216.624C172.935 216.372 172.689 216.114 172.434 215.849C170.262 213.597 167.864 211.363 165.317 209.308C158.259 203.613 151.45 200.397 145.635 200.745C136.124 201.317 128.247 200.872 120.939 198.822C111.492 196.171 104.073 190.97 99.164 182.691L98.8888 182.219C96.3472 177.787 92.5934 172.681 88.1655 167.366C86.7971 165.724 85.4474 164.162 84.1609 162.718L83.6135 162.106C82.7371 161.131 82.019 160.354 81.718 160.038C80.6068 158.867 80.2206 157.187 80.7061 155.65L80.7774 155.443C81.3107 154.007 82.551 152.943 84.0627 152.645L92.169 151.043L92.2634 150.906C95.164 146.784 99.3054 143.291 104.807 141.885C110.545 140.417 116.583 141.693 122.664 145.552L123.088 145.825C131.301 151.196 139.441 150.9 147.181 146.853C152.709 143.963 157.979 139.054 161.971 133.046C165.684 127.461 167.89 121.49 168.048 116.777C168.113 114.808 169.472 113.117 171.382 112.634C173.294 112.151 175.294 112.998 176.283 114.706ZM172.884 116.986L172.832 117.39C172.12 122.56 170.124 129.759 166.515 135.19C162.071 141.876 155.8 146.989 149.498 150.284C140.407 155.038 130.511 155.908 120.767 149.732L120.337 149.456C115.217 146.107 111.331 144.494 106 145.825C100.669 147.156 98.0791 151.039 95.7777 154.641L95.6722 154.794C95.3033 155.286 94.7637 155.628 94.1554 155.748L84.047 157.349L87.7281 161.922C88.8361 163.308 89.6236 164.308 90.0907 164.92L94.1368 170.25C106.195 186.065 119.172 201.166 144.478 195.938L145.336 195.754C152.04 194.264 157.661 198.267 164.713 204.166L166.22 205.435C168.085 207.013 173.725 211.985 176.033 214.378L176.787 215.17L177.483 215.918C177.628 216.076 177.766 216.228 177.898 216.374L178.617 217.185L179.059 216.663C183.832 210.917 186.822 202.164 188.37 194.944C188.955 192.216 189.29 189.604 189.43 187.193L189.447 186.88C189.483 186.175 189.499 185.56 189.502 185.046V184.665L188.781 184.876C180.435 187.243 171.044 187.479 161.881 186.422C159.668 186.166 183.949 166.5 178.965 141.031C177.829 135.226 177.108 127.465 175.124 122.197C174.499 120.536 173.85 119.017 173.207 117.658L172.884 116.986Z" fill="#E7EAEE"/>
<path fill-rule="evenodd" clip-rule="evenodd" d="M109.5 162C111.43 162 113 160.43 113 158.5C113 156.57 111.43 155 109.5 155C107.57 155 106 156.57 106 158.5C106 160.43 107.57 162 109.5 162Z" fill="#00160A"/>
<ellipse cx="112.5" cy="171.5" rx="5.5" ry="4.5" fill="#FFB61D"/>
<ellipse cx="112.5" cy="171.5" rx="5.5" ry="4.5" fill="#FFB61D"/>
<path fill-rule="evenodd" clip-rule="evenodd" d="M176.283 114.706L176.535 115.156L176.843 115.735C177.029 116.091 177.237 116.504 177.464 116.971C178.25 118.587 179.044 120.417 179.804 122.435C181.943 128.115 183.439 134.246 183.949 140.632C184.642 149.299 183.391 157.479 180.223 164.92L179.951 165.545C177.377 171.357 173.627 176.683 168.759 181.462L168.276 181.929L168.686 181.949C175.697 182.243 182.63 181.616 188.724 179.673C190.031 179.256 191.456 179.471 192.582 180.254C193.706 181.036 194.404 182.294 194.474 183.661L194.49 184.085L194.5 184.646V184.861C194.5 185.644 194.477 186.521 194.421 187.483C194.268 190.138 193.9 193.002 193.259 195.992C191.448 204.438 187.828 212.35 181.911 219.016C181.126 219.901 180.021 220.431 178.846 220.494L178.575 220.5C177.321 220.476 176.175 219.958 175.361 219.073L174.765 218.38L174.473 218.048L173.852 217.358L173.172 216.624C172.935 216.372 172.689 216.114 172.434 215.849C170.262 213.597 167.864 211.363 165.317 209.308C158.259 203.613 151.45 200.397 145.635 200.745C136.124 201.317 128.247 200.872 120.939 198.822C111.492 196.171 104.073 190.97 99.1641 182.691L98.8889 182.219C96.3473 177.787 92.5935 172.681 88.1656 167.366C86.7972 165.724 85.4475 164.162 84.161 162.718L83.6136 162.106C82.7372 161.131 82.0191 160.354 81.7181 160.038C80.6069 158.867 80.2207 157.187 80.7062 155.65L80.7775 155.443C81.3108 154.007 82.5511 152.943 84.0628 152.645L92.1691 151.043L92.2636 150.906C95.1641 146.784 99.3055 143.291 104.807 141.885C110.222 140.5 115.904 141.558 121.637 144.924C127.988 142.796 133.44 137.938 138.005 131.114C140.236 127.779 142.105 124.194 143.623 120.602C144.157 119.339 144.609 118.164 144.982 117.106C145.113 116.735 145.224 116.406 145.318 116.118L145.441 115.728C145.904 114.27 147.174 113.213 148.694 113.029C150.178 112.847 151.568 113.548 152.426 114.765C152.901 115.439 153.352 116.123 153.779 116.818C157.77 123.304 159.469 129.953 159.7 136.175C160.494 135.171 161.254 134.127 161.971 133.046C165.684 127.461 167.89 121.49 168.048 116.777C168.113 114.808 169.472 113.117 171.382 112.634C173.295 112.151 175.294 112.998 176.283 114.706ZM147.181 146.853C139.663 150.784 131.767 151.176 123.794 146.273C129.162 143.791 137.776 138.652 141.33 133.338C143.713 129.775 145.697 125.97 147.308 122.16C147.794 121.01 148.216 119.927 148.579 118.928L148.755 118.435C148.897 118.033 149.019 117.672 149.122 117.353C149.148 117.126 149.173 117.05 149.195 117.125C156.811 122.335 157.375 132.678 157.219 139.055C154.158 142.321 150.723 145.001 147.181 146.853ZM149.498 150.284C152.549 148.689 155.592 146.668 158.425 144.248C158.643 144.121 158.835 143.954 158.992 143.756C161.791 141.287 164.366 138.422 166.515 135.19C170.124 129.759 172.12 122.56 172.832 117.39L172.884 116.986L173.208 117.658C173.85 119.017 174.499 120.536 175.124 122.197C176.505 125.863 177.274 130.737 177.997 135.318L177.997 135.318L177.997 135.318C178.313 137.32 178.62 139.266 178.965 141.031C182.785 160.552 169.413 176.664 163.956 183.24C162.293 185.244 161.364 186.362 161.881 186.422C171.044 187.479 180.435 187.243 188.781 184.876L189.502 184.665V185.046C189.5 185.56 189.483 186.175 189.447 186.88L189.43 187.193C189.29 189.604 188.955 192.216 188.37 194.944C186.822 202.164 183.833 210.917 179.059 216.663L178.617 217.185L177.898 216.374C177.767 216.228 177.628 216.076 177.483 215.918L176.787 215.17L176.033 214.378C173.725 211.985 168.085 207.013 166.22 205.435L164.713 204.166C157.661 198.267 152.04 194.264 145.336 195.754L144.478 195.938C119.172 201.166 106.195 186.065 94.1369 170.25L90.0908 164.92C89.6237 164.308 88.8362 163.308 87.7283 161.922L84.0471 157.349L94.1555 155.748C94.7638 155.628 95.3034 155.286 95.6723 154.794L95.7778 154.641C98.0793 151.039 100.669 147.156 106 145.825C111.332 144.494 115.217 146.107 120.337 149.456L120.767 149.732C130.511 155.908 140.407 155.038 149.498 150.284ZM549.609 288.346C551.574 287.39 555.1 289.243 553.055 292.225C549.958 296.74 553.399 307.224 555.494 313.61L555.494 313.61L555.494 313.611L555.495 313.611L555.495 313.612C556.464 316.565 557.145 318.641 556.758 318.843C555.534 319.483 554.024 319.009 553.384 317.786C549.921 311.159 547.933 305.897 547.437 301.898C547.19 299.907 547.135 297.982 547.275 296.125L547.293 295.91L531.283 303.692L531.081 303.878C527.467 307.269 525.877 311.205 528.521 318.177L528.677 318.581C531.549 325.891 536.409 331.135 541.465 330.917L541.861 330.896C553.097 330.671 559.813 327.289 562.21 323.172C565.225 317.995 566.043 312.02 560.42 300.396C559.818 299.153 556.735 290.558 561.097 294.996C565.46 299.433 571.542 319.042 567.608 325.798C564.324 331.438 555.897 334.265 544.348 334.815C544.416 335.109 544.431 335.42 544.384 335.737C543.29 343.161 539.902 347.831 534.235 349.182C529.902 350.215 525.245 348.846 520.979 345.548C505.992 348.767 491.485 353.672 477.456 360.264L475.378 361.249C468.221 364.668 464.116 366.959 461.119 369.187C459.361 370.494 457.909 371.832 456.348 373.555L456.096 373.841C455.339 374.719 453.689 376.735 451.811 379.028L451.807 379.033L451.805 379.036L451.805 379.036L451.803 379.038L451.797 379.046L451.794 379.049C449.296 382.101 446.399 385.639 444.669 387.641L443.833 388.604C436.792 396.672 427.918 405.825 415.721 417.327L415.379 417.641C410.806 421.727 398.654 428.636 383.5 435.603C425.322 434.117 455.478 418.154 474.258 387.688C475.084 386.348 476.929 386.096 478.085 387.166C510.378 417.074 547.795 430.915 590.481 428.753C633.281 426.586 664.688 415.462 684.801 395.491C685.781 394.518 687.364 394.523 688.336 395.503C689.309 396.483 689.304 398.066 688.324 399.039C667.225 419.99 622.43 435.711 578.501 437.935C535.78 440.098 510.29 422.495 477.697 393.563L476.9 392.851L476.615 393.29C455.973 424.573 411.125 447.389 366.37 447.712L364.968 447.717C319.19 447.717 292.789 425.552 261.905 395.256L261.664 395.018L261.554 395.113L260.747 395.791L259.574 396.778L258.856 397.382C229.917 421.736 208.324 439.907 175.843 444.55L174.807 444.694C138.183 452.104 82.6388 432.367 74.1033 422.692C66.2825 413.828 75.4047 419.338 77.909 420.85L77.9091 420.85C78.1379 420.989 78.3115 421.093 78.4118 421.151C102.652 435.029 130.6 440.314 164.131 435.74C168.759 435.109 173.357 434.273 177.926 433.233L177.873 432.741C176.409 418.835 176.401 412.758 178.51 405.782C181.38 396.293 188.346 389.084 200.878 383.351L204.329 381.826C219.809 375.003 232.103 369.881 244.855 364.905L245.789 364.541C247.219 363.985 248.668 363.425 250.147 362.857L251.596 362.305C252.119 362.12 258.934 359.418 269.297 355.31L269.3 355.308L269.327 355.298L269.332 355.296L269.335 355.295C293.287 345.799 336.144 328.809 364.103 317.999C370.15 315.673 377.474 314.9 386.455 315.364L387.229 315.406C393.958 315.802 400.576 316.716 411.426 318.593L420.958 320.262C431.603 322.105 436.76 322.831 442.782 323.26C444.675 323.395 446.475 323.563 448.184 323.721L448.185 323.721C454.517 324.31 459.613 324.784 463.673 323.073C467.285 321.552 470.825 320.084 474.294 318.645L474.295 318.644C485.642 313.938 496.226 309.547 506.048 304.665C506.722 300.297 508.443 297.072 511.14 294.948C515.301 291.672 521.19 291.617 526.297 293.603C527.584 294.103 528.221 295.552 527.721 296.839C527.559 297.255 526.519 297.064 525.047 296.792C521.969 296.225 517.004 295.309 514.234 298.876C511.151 302.844 510.128 308.923 512.857 320.893C514.835 329.568 527.659 344.318 533.075 344.318C539.114 344.318 540.526 338.456 541.327 335.131L541.378 334.923C534.196 335.109 528.738 330.564 525.196 321.841L525.024 321.409C521.381 312.134 522.38 304.699 528.271 299.686C528.378 299.595 528.492 299.513 528.613 299.441L528.798 299.342L549.609 288.346ZM516.366 341.029C516.113 340.723 515.863 340.409 515.616 340.088C515.522 339.987 515.432 339.887 515.354 339.793C515.127 339.516 514.893 339.235 514.655 338.949C512.717 336.621 510.472 333.925 508.714 330.036L508.459 329.469C505.639 323.152 505.303 316.057 505.476 310.206L505.502 309.526L505.353 309.602C493.702 315.368 481.028 321.153 467.331 326.956L465.614 327.681C459.75 330.151 452.425 331.896 443.145 331.297L442.427 331.248C436.087 330.796 430.753 330.038 419.57 328.096L411.221 326.633C387.685 322.558 375.907 321.922 366.201 325.551C366.201 325.551 221.468 379.995 202.932 387.91C191.658 393.067 187.833 397.919 183.171 405.782C180.76 409.849 181.003 421.067 181.173 428.859L181.173 428.861C181.201 430.168 181.228 431.378 181.239 432.442C208.606 425.597 234.912 411.369 260.174 389.726C261.17 388.872 262.656 388.934 263.578 389.866C265.622 391.932 267.7 393.929 269.812 395.855L374.036 352.311C374.322 352.192 374.617 352.13 374.909 352.119C375.695 351.749 376.541 351.442 377.45 351.201C386.538 348.785 393.795 352.715 398.81 362.391L407.894 355.765C409.234 354.787 411.137 355.361 411.712 356.917C420.003 379.322 417.587 394.674 403.936 402.081C390.169 409.551 378.197 403.392 368.864 384.721C368.39 383.773 368.576 382.679 369.231 381.941C367.006 372.902 366.593 365.7 368.107 360.485L276.793 401.866C290.447 412.951 305.441 421.312 321.784 426.951C322.158 426.594 322.562 426.286 322.96 426.068C336.726 418.528 370.642 409.719 379.02 407.544C379.745 407.355 380.279 407.217 380.592 407.133C384.522 406.08 380.495 409.753 379.309 410.3L379.157 410.364L329.655 429.427C344.381 433.621 360.149 435.717 376.968 435.717C377.924 435.717 378.874 435.71 379.819 435.696L380.927 434.976L380.928 434.975L380.928 434.975L380.93 434.974C391.517 428.093 409.217 416.588 412.29 413.69L413.724 412.334C423.916 402.444 431.502 392.956 438.123 384.675C445.387 375.588 451.491 367.953 458.604 362.832C464.135 358.85 466.139 357.94 470.849 355.802C472.109 355.229 473.563 354.57 475.33 353.739C487.824 347.868 502.012 344.468 515.331 341.277L516.366 341.029ZM378.734 356.033C385.936 354.118 391.329 357.5 395.44 366.944L384.818 375.365L384.808 375.369L373.832 379.699L373.558 378.495C370.552 364.871 372.511 357.688 378.734 356.033ZM395.44 366.944L384.827 375.361C385.04 375.277 385.259 375.224 385.478 375.201C385.679 375.179 385.88 375.183 386.077 375.209C386.543 375.272 386.985 375.465 387.349 375.77C387.588 375.97 387.792 376.216 387.946 376.503C390.451 381.013 392.388 382.088 394.354 380.985C396.436 379.818 397.09 375.429 395.569 367.588L395.44 366.944ZM257.739 469.594C258.9 468.847 266.914 464.937 259.777 472.286C252.64 479.636 197.056 510.816 167.052 512.543C138.133 514.207 112.457 502.129 90.1176 486.322L89.3773 485.794L89.2297 485.985C88.2407 487.239 87.2246 488.376 86.1804 489.398L85.7312 489.828C83.839 491.605 80.5641 493.615 75.8324 495.952C74.5945 496.564 70.2204 497.126 72.4838 494.818C74.7473 492.51 79.7013 489.186 82.5864 487.281C84.4719 486.036 85.0674 484.579 85.6582 483.134C85.9714 482.368 86.2833 481.605 86.7854 480.879C87.5919 479.712 89.2063 479.449 90.3413 480.3C112.364 496.806 138.09 505.604 167.052 503.938C196.134 502.264 226.168 489.907 257.739 469.594ZM428.787 485.534C429.802 484.598 429.802 477.918 428.787 478.854C417.554 489.219 394.037 498.335 365.018 500.005C335.962 501.678 313.118 497.109 296.441 486.386C295.28 485.639 289.532 483.664 292.986 487.136C296.441 490.609 335.275 508.725 365.305 506.997L366.205 506.944C395.794 505.138 416.655 496.728 428.787 485.534ZM408.276 362.233L408.125 361.783L400.598 367.275L400.737 368.052C402.25 376.904 401.218 382.691 397.02 385.218L396.8 385.346C392.424 387.8 388.305 386.067 384.862 381.025L384.71 380.8L374.589 384.888L374.823 385.313C382.56 399.274 391.134 403.157 401.225 397.861L401.551 397.687C411.686 392.187 414.182 380.964 408.626 363.321L408.276 362.233ZM113 158.5C113 160.43 111.43 162 109.5 162C107.57 162 106 160.43 106 158.5C106 156.57 107.57 155 109.5 155C111.43 155 113 156.57 113 158.5Z" fill="#00160A"/>
</svg>
