<svg width="24" height="24" viewBox="0 0 24 24" fill="none" xmlns="http://www.w3.org/2000/svg">
<path fill-rule="evenodd" clip-rule="evenodd" d="M7.50035 3.86387C8.69376 2.67045 10.3124 2 12.0001 2C13.6878 2 15.3064 2.67045 16.4998 3.86387C17.6932 5.05728 18.3637 6.6759 18.3637 8.36364C18.3637 11.4115 19.0155 13.3042 19.6163 14.4056C19.9179 14.9586 20.2116 15.3213 20.4157 15.5367C20.5179 15.6446 20.5983 15.7162 20.6466 15.7565C20.6708 15.7767 20.6871 15.7891 20.6941 15.7943C20.6952 15.7951 20.696 15.7957 20.6967 15.7962C21.0226 16.0201 21.1668 16.4295 21.0519 16.8089C20.9358 17.1923 20.5824 17.4545 20.1818 17.4545H3.81833C3.41773 17.4545 3.06435 17.1923 2.94826 16.8089C2.8334 16.4295 2.97762 16.0201 3.30351 15.7962C3.30415 15.7957 3.30502 15.7951 3.30611 15.7943C3.31311 15.7891 3.32934 15.7767 3.35354 15.7565C3.40192 15.7162 3.48227 15.6446 3.58452 15.5367C3.78854 15.3213 4.08225 14.9586 4.38388 14.4056C4.98463 13.3042 5.6365 11.4115 5.6365 8.36364C5.6365 6.67589 6.30695 5.05728 7.50035 3.86387ZM3.3127 15.79C3.31277 15.7899 3.31284 15.7899 3.31291 15.7898C3.31291 15.7898 3.31291 15.7898 3.3129 15.7898L3.3127 15.79ZM5.77225 15.6364H18.2279C18.1588 15.523 18.0893 15.4031 18.0201 15.2762C17.2573 13.8776 16.5455 11.6794 16.5455 8.36364C16.5455 7.15811 16.0666 6.00195 15.2142 5.14951C14.3618 4.29708 13.2056 3.81818 12.0001 3.81818C10.7946 3.81818 9.63842 4.29708 8.78599 5.14951C7.93356 6.00195 7.45467 7.15811 7.45467 8.36364C7.45467 11.6794 6.74292 13.8776 5.98004 15.2762C5.91086 15.4031 5.84142 15.523 5.77225 15.6364Z" fill="#282F38"/>
<path fill-rule="evenodd" clip-rule="evenodd" d="M9.77057 19.3958C10.2478 19.1435 10.8591 19.2915 11.1359 19.7263C11.2237 19.8642 11.3497 19.9787 11.5014 20.0583C11.653 20.1379 11.825 20.1798 12 20.1798C12.175 20.1798 12.3469 20.1379 12.4986 20.0583C12.6502 19.9787 12.7762 19.8642 12.8641 19.7263C13.1409 19.2915 13.7522 19.1435 14.2294 19.3958C14.7066 19.648 14.8691 20.2049 14.5922 20.6397C14.3288 21.0534 13.9507 21.3969 13.4957 21.6356C13.0408 21.8743 12.525 22 12 22C11.475 22 10.9592 21.8743 10.5042 21.6356C10.0493 21.3969 9.67116 21.0534 9.40773 20.6397C9.1309 20.2049 9.29335 19.648 9.77057 19.3958Z" fill="#282F38"/>
</svg>
