<svg width="22" height="28" viewBox="0 0 22 28" fill="none" xmlns="http://www.w3.org/2000/svg">
<path d="M1.66634 23.3334C1.28856 23.3334 0.971897 23.2056 0.716341 22.9501C0.460786 22.6945 0.333008 22.3779 0.333008 22.0001C0.333008 21.6223 0.460786 21.3056 0.716341 21.0501C0.971897 20.7945 1.28856 20.6667 1.66634 20.6667H2.99967V11.3334C2.99967 9.48897 3.55523 7.85008 4.66634 6.41675C5.77745 4.98342 7.2219 4.04453 8.99967 3.60008V2.66675C8.99967 2.11119 9.19412 1.63897 9.58301 1.25008C9.9719 0.861192 10.4441 0.666748 10.9997 0.666748C11.5552 0.666748 12.0275 0.861192 12.4163 1.25008C12.8052 1.63897 12.9997 2.11119 12.9997 2.66675V3.60008C14.7775 4.04453 16.2219 4.98342 17.333 6.41675C18.4441 7.85008 18.9997 9.48897 18.9997 11.3334V20.6667H20.333C20.7108 20.6667 21.0275 20.7945 21.283 21.0501C21.5386 21.3056 21.6663 21.6223 21.6663 22.0001C21.6663 22.3779 21.5386 22.6945 21.283 22.9501C21.0275 23.2056 20.7108 23.3334 20.333 23.3334H1.66634ZM10.9997 27.3334C10.2663 27.3334 9.63856 27.0723 9.11634 26.5501C8.59412 26.0279 8.33301 25.4001 8.33301 24.6667H13.6663C13.6663 25.4001 13.4052 26.0279 12.883 26.5501C12.3608 27.0723 11.733 27.3334 10.9997 27.3334Z" fill="#525252"/>
</svg>
