<svg width="435" height="1040" viewBox="0 0 435 1040" fill="none" xmlns="http://www.w3.org/2000/svg">
<path fill-rule="evenodd" clip-rule="evenodd" d="M286.54 873.296C289.246 875.558 292.28 877.418 295.567 878.816L299.342 868.066C297.556 867.255 295.895 866.224 294.356 865.02L286.54 873.299L286.54 873.296Z" fill="#177FAC"/>
<path fill-rule="evenodd" clip-rule="evenodd" d="M277.257 861.522C278.831 864.733 280.872 867.657 283.269 870.222L291.097 861.942C289.817 860.494 288.702 858.881 287.771 857.14L277.259 861.521L277.257 861.522Z" fill="#177FAC"/>
<path fill-rule="evenodd" clip-rule="evenodd" d="M273.591 846.995C273.619 847.504 273.644 848.017 273.686 848.525C273.934 851.607 274.563 854.577 275.538 857.38L286.051 853.012C285.509 851.281 285.157 849.483 285.005 847.611L284.978 847.267L273.588 846.995L273.591 846.995Z" fill="#177FAC"/>
<path fill-rule="evenodd" clip-rule="evenodd" d="M333.987 77.7709C332.111 80.757 330.676 84.0133 329.734 87.4593L340.894 89.7513C341.457 87.8729 342.255 86.0877 343.241 84.4008L333.985 77.7715L333.987 77.7709Z" fill="#177FAC"/>
<path fill-rule="evenodd" clip-rule="evenodd" d="M344.404 66.9859C341.434 68.9789 338.812 71.3944 336.593 74.1151L345.852 80.7572C347.114 79.2937 348.563 77.9716 350.162 76.8146L344.405 66.9884L344.404 66.9859Z" fill="#177FAC"/>
<path opacity="0.2" fill-rule="evenodd" clip-rule="evenodd" d="M723.996 219.421C808.224 281.638 895.874 355.846 897.741 465.666C899.529 570.826 803.396 643.414 732.577 724.129C651.987 815.978 586.789 957.899 470.996 952.036C353.942 946.109 281.803 816.772 256.839 700.041C238.17 612.749 343.16 549.182 365.802 460.158C396.999 337.497 303.83 174.465 408.385 104.195C511.762 34.717 629.478 149.604 723.996 219.421Z" fill="#177FAC"/>
<path fill-rule="evenodd" clip-rule="evenodd" d="M700.91 190.506C785.138 252.723 872.788 326.931 874.655 436.751C876.443 541.911 780.31 614.499 709.491 695.214C628.901 787.063 563.703 928.984 447.91 923.121C330.856 917.194 258.717 787.857 233.753 671.126C215.084 583.834 320.074 520.267 342.716 431.243C373.913 308.582 280.744 145.55 385.299 75.2798C488.676 5.80199 606.392 120.689 700.91 190.506Z" stroke="#177FAC" stroke-width="2"/>
</svg>
