<svg width="278" height="390" viewBox="0 0 278 390" fill="none" xmlns="http://www.w3.org/2000/svg">
<path fill-rule="evenodd" clip-rule="evenodd" d="M88.56 311.879C100.246 334.595 115.247 355.552 133.245 374.147L188.72 313.046C179.091 302.603 170.91 291.042 164.033 278.674L88.5541 311.897L88.56 311.879Z" fill="#BCE3FA"/>
<path fill-rule="evenodd" clip-rule="evenodd" d="M59.7863 207.151C61.2481 233.016 66.6228 258.277 75.3924 282.145L150.961 248.952C146.498 235.684 143.603 221.778 142.295 207.538L59.8043 207.157L59.7863 207.151Z" fill="#BCE3FA"/>
<path fill-rule="evenodd" clip-rule="evenodd" d="M76.2537 99.8884C75.0051 103.367 73.7326 106.858 72.574 110.367C65.5513 131.634 61.3772 153.223 59.9842 174.673L142.446 175.144C143.708 162.072 146.421 149.079 150.686 136.16L151.471 133.785L76.2357 99.8825L76.2537 99.8884Z" fill="#BCE3FA"/>
<path fill-rule="evenodd" clip-rule="evenodd" d="M134.86 8.53344C117.133 26.4854 101.746 47.2056 89.5966 70.2722L164.832 104.175C171.887 91.7583 180.299 80.3087 189.897 70.1083L134.878 8.5394L134.86 8.53344Z" fill="#BCE3FA"/>
</svg>
