<svg width="24" height="24" viewBox="0 0 24 24" fill="none" xmlns="http://www.w3.org/2000/svg">
<path d="M12 17.275L7.85002 19.775C7.66668 19.8916 7.47502 19.9416 7.27501 19.9249C7.07501 19.9083 6.90001 19.8416 6.75002 19.725C6.60001 19.6083 6.48335 19.4625 6.40002 19.2874C6.31668 19.1125 6.30002 18.9166 6.35002 18.7L7.45002 13.975L3.77502 10.8C3.60835 10.65 3.50418 10.4791 3.46252 10.2875C3.42085 10.0958 3.43335 9.90828 3.50002 9.72495C3.56668 9.54162 3.66668 9.39162 3.80002 9.27495C3.93335 9.15828 4.11668 9.08328 4.35002 9.04995L9.20002 8.62495L11.075 4.17495C11.1583 3.97495 11.2875 3.82495 11.4625 3.72495C11.6375 3.62495 11.8167 3.57495 12 3.57495C12.1833 3.57495 12.3625 3.62495 12.5375 3.72495C12.7125 3.82495 12.8417 3.97495 12.925 4.17495L14.8 8.62495L19.65 9.04995C19.8833 9.08328 20.0667 9.15828 20.2 9.27495C20.3333 9.39162 20.4333 9.54162 20.5 9.72495C20.5667 9.90828 20.5792 10.0958 20.5375 10.2875C20.4958 10.4791 20.3917 10.65 20.225 10.8L16.55 13.975L17.65 18.7C17.7 18.9166 17.6833 19.1125 17.6 19.2874C17.5167 19.4625 17.4 19.6083 17.25 19.725C17.1 19.8416 16.925 19.9083 16.725 19.9249C16.525 19.9416 16.3333 19.8916 16.15 19.775L12 17.275Z" fill="#FFD300"/>
</svg>
