
<svg width="305" height="239" viewBox="0 0 305 239" fill="none" xmlns="http://www.w3.org/2000/svg">
<g clip-path="url(#clip0_7047_1561)">
<path d="M276.889 0.156174H0.118164V176.588H276.889V0.156174Z" fill="#E6E6E6"/>
<path d="M268.975 22.2851H8.03247V166.15H268.975V22.2851Z" fill="white"/>
<path d="M276.771 0H0V11.7035H276.771V0Z" fill="#177FAC"/>
<path d="M8.73789 8.15261C9.94148 8.15261 10.9172 7.18145 10.9172 5.98346C10.9172 4.78546 9.94148 3.8143 8.73789 3.8143C7.5343 3.8143 6.55859 4.78546 6.55859 5.98346C6.55859 7.18145 7.5343 8.15261 8.73789 8.15261Z" fill="white"/>
<path d="M17.0099 8.15261C18.2135 8.15261 19.1892 7.18145 19.1892 5.98346C19.1892 4.78546 18.2135 3.8143 17.0099 3.8143C15.8063 3.8143 14.8306 4.78546 14.8306 5.98346C14.8306 7.18145 15.8063 8.15261 17.0099 8.15261Z" fill="white"/>
<path d="M25.2818 8.15261C26.4854 8.15261 27.4611 7.18145 27.4611 5.98346C27.4611 4.78546 26.4854 3.8143 25.2818 3.8143C24.0782 3.8143 23.1025 4.78546 23.1025 5.98346C23.1025 7.18145 24.0782 8.15261 25.2818 8.15261Z" fill="white"/>
<path d="M98.7923 37.2122H31.7424V151.223H98.7923V37.2122Z" fill="#E6E6E6"/>
<path d="M166.241 37.2122H110.366V68.5949H166.241V37.2122Z" fill="#177FAC"/>
<path d="M166.241 77.3344H110.366V111.101H166.241V77.3344Z" fill="#E6E6E6"/>
<path d="M166.241 119.84H110.366V151.223H166.241V119.84Z" fill="#E6E6E6"/>
<path d="M245.264 37.2122H178.215V86.8974H245.264V37.2122Z" fill="#E6E6E6"/>
<path d="M245.264 101.538H178.215V151.223H245.264V101.538Z" fill="#E6E6E6"/>
<path d="M219.435 90.4667V79.7702C219.435 75.9688 220.952 72.3231 223.652 69.635C226.353 66.947 230.016 65.4369 233.835 65.4369C237.654 65.4369 241.317 66.947 244.017 69.635C246.718 72.3231 248.235 75.9688 248.235 79.7702V90.4667C248.235 90.9772 248.031 91.4666 247.668 91.8275C247.305 92.1885 246.814 92.3915 246.301 92.3921H221.369C220.856 92.3915 220.364 92.1885 220.002 91.8275C219.639 91.4666 219.435 90.9772 219.435 90.4667Z" fill="#2F2E41"/>
<path d="M255.128 229.669L250.049 231.068L242.21 212.235L249.706 210.17L255.128 229.669Z" fill="#FFDCD5"/>
<path d="M246.019 230.623L255.815 227.925L257.522 234.064L241.559 238.461C241.335 237.655 241.272 236.813 241.375 235.983C241.478 235.152 241.744 234.351 242.158 233.623C242.573 232.895 243.127 232.256 243.789 231.741C244.452 231.226 245.21 230.847 246.019 230.623Z" fill="#2F2E41"/>
<path d="M202.175 233.558H196.905L194.398 213.326H202.176L202.175 233.558Z" fill="#FFDCD5"/>
<path d="M193.141 232.059H203.305V238.429H186.742C186.742 237.592 186.907 236.764 187.229 235.991C187.55 235.218 188.022 234.516 188.616 233.925C189.21 233.333 189.916 232.864 190.692 232.544C191.468 232.224 192.301 232.059 193.141 232.059Z" fill="#2F2E41"/>
<path d="M195.821 120.484C196.197 120.99 196.68 121.407 197.235 121.707C197.791 122.006 198.406 122.181 199.037 122.218C199.668 122.256 200.299 122.155 200.886 121.923C201.474 121.691 202.003 121.334 202.437 120.877L216.446 127.149L215.172 119.305L202.064 114.552C201.244 113.878 200.203 113.526 199.14 113.564C198.077 113.602 197.065 114.027 196.295 114.758C195.525 115.489 195.052 116.476 194.965 117.532C194.877 118.587 195.182 119.638 195.821 120.484Z" fill="#FFDCD5"/>
<path d="M224.928 167.651C220.527 167.651 215.97 166.998 212.14 165.058C210.107 164.048 208.306 162.631 206.848 160.896C205.39 159.161 204.308 157.145 203.668 154.975C201.673 148.686 204.189 142.507 206.622 136.532C208.13 132.829 209.554 129.332 209.924 125.885L210.053 124.661C210.628 119.164 211.125 114.417 213.877 112.636C215.304 111.713 217.221 111.661 219.741 112.475L243.402 120.126L242.532 164.833L242.389 164.881C242.265 164.922 233.923 167.651 224.928 167.651Z" fill="#2F2E41"/>
<path d="M219.327 98.5568C219.327 98.5568 230.933 95.1339 239.96 96.4175C239.96 96.4175 234.802 124.656 236.522 134.069C238.241 143.482 206.646 137.706 213.094 128.721L215.243 118.024C215.243 118.024 210.945 113.746 214.814 108.612L219.327 98.5568Z" fill="#177FAC"/>
<path d="M213.618 166.803L199.314 164.134L204.308 125.88C204.644 124.812 212.38 100.575 215.894 99.264C218.445 98.3698 221.054 97.6483 223.703 97.1047L224.211 97.0033L221.343 101.286L209.924 128.521L213.618 166.803Z" fill="#2F2E41"/>
<path d="M206.165 228.87L187.683 225.804L198.055 183.65L213.488 126.001L213.641 127.025C213.653 127.101 215.095 134.632 236.488 131.291L236.676 131.261L236.728 131.444L262.585 222.38L241.526 225.874L222.319 159.527L206.165 228.87Z" fill="#2F2E41"/>
<path d="M231.781 173.962L231.793 173.639C231.806 173.279 233.077 137.539 232.653 123.165C232.227 108.742 236.918 96.2523 236.965 96.1278L237.003 96.0275L237.107 95.9978C243.177 94.272 248.442 99.423 248.495 99.4752L248.569 99.5488L246.84 113.744L254.24 165.361L231.781 173.962Z" fill="#2F2E41"/>
<path d="M230.876 92.1431C236.707 92.1431 241.434 87.4382 241.434 81.6344C241.434 75.8306 236.707 71.1257 230.876 71.1257C225.045 71.1257 220.318 75.8306 220.318 81.6344C220.318 87.4382 225.045 92.1431 230.876 92.1431Z" fill="#FFDCD5"/>
<path d="M216.028 80.626C216.031 77.6199 217.232 74.7379 219.368 72.6123C221.504 70.4867 224.399 69.2911 227.419 69.2877H229.569C232.589 69.2911 235.484 70.4867 237.62 72.6123C239.755 74.7379 240.956 77.6199 240.96 80.626V80.8399H236.418L234.868 76.522L234.559 80.8399H232.211L231.429 78.6613L231.273 80.8399H216.028V80.626Z" fill="#2F2E41"/>
<path d="M229.837 93.5949C229.624 93.3075 229.496 92.966 229.469 92.6097C229.443 92.2534 229.518 91.8968 229.685 91.581C231.963 87.269 235.152 79.3013 230.919 74.3876L230.615 74.0346H242.903V92.3983L231.74 94.3587C231.627 94.3786 231.513 94.3887 231.398 94.3888C231.093 94.3888 230.793 94.3168 230.521 94.1788C230.25 94.0408 230.015 93.8407 229.837 93.5949Z" fill="#2F2E41"/>
<path d="M180.361 17.776C171.762 10.5539 161.239 5.97515 150.074 4.59697C138.908 3.21879 127.581 5.10059 117.47 10.0134C107.359 14.9262 98.9008 22.6581 93.1244 32.2684C87.348 41.8787 84.5025 52.9529 84.9341 64.1435C85.3657 75.3341 89.0558 86.1586 95.5555 95.2998C102.055 104.441 111.084 111.505 121.543 115.632C132.003 119.758 143.442 120.77 154.468 118.544C165.495 116.318 175.634 110.95 183.651 103.093L254.844 162.885C255.927 163.797 257.33 164.242 258.743 164.125C260.157 164.007 261.466 163.335 262.381 162.257C263.297 161.179 263.745 159.782 263.627 158.375C263.508 156.968 262.833 155.666 261.75 154.754L261.742 154.748L190.55 94.9553C198.82 83.1408 202.36 68.6781 200.475 54.4013C198.59 40.1245 191.417 27.0628 180.361 17.776ZM175.771 89.1977C170.225 95.7401 162.854 100.499 154.591 102.871C146.328 105.244 137.543 105.125 129.348 102.528C121.153 99.9316 113.915 94.9746 108.551 88.2839C103.186 81.5932 99.9353 73.4694 99.2093 64.9397C98.4833 56.41 100.315 47.8576 104.472 40.3639C108.629 32.8703 114.926 26.772 122.565 22.8402C130.205 18.9084 138.844 17.3197 147.39 18.275C155.937 19.2303 164.007 22.6868 170.58 28.2072C174.944 31.8726 178.54 36.3577 181.163 41.4065C183.786 46.4553 185.384 51.9688 185.866 57.6323C186.348 63.2958 185.705 68.9983 183.973 74.4143C182.241 79.8303 179.454 84.8537 175.771 89.1977Z" fill="#3F3D56"/>
<path opacity="0.3" d="M114.496 94.3648C106.154 87.3581 100.764 77.485 99.3972 66.7061C98.0303 55.9272 100.786 45.0308 107.117 36.1806C106.285 37.014 105.482 37.8868 104.706 38.799C101.023 43.143 98.2361 48.1664 96.504 53.5824C94.7719 58.9984 94.1285 64.701 94.6105 70.3645C95.0926 76.028 96.6906 81.5415 99.3135 86.5903C101.936 91.639 105.532 96.1242 109.897 99.7896C114.261 103.455 119.308 106.229 124.749 107.953C130.191 109.677 135.92 110.317 141.61 109.838C147.3 109.358 152.839 107.767 157.911 105.157C162.984 102.546 167.49 98.9665 171.172 94.6225C171.947 93.7091 172.676 92.7737 173.36 91.8162C165.66 99.5168 155.332 104.054 144.428 104.526C133.523 104.998 122.838 101.371 114.496 94.3648Z" fill="black"/>
<path d="M234.266 138.856C234.879 139.005 235.519 139.019 236.138 138.896C236.758 138.773 237.343 138.516 237.852 138.143C238.362 137.771 238.782 137.292 239.085 136.74C239.388 136.188 239.566 135.576 239.606 134.949L254.408 130.859L248.391 125.638L235.258 130.322C234.194 130.325 233.168 130.716 232.374 131.422C231.581 132.127 231.075 133.098 230.953 134.15C230.831 135.202 231.101 136.262 231.711 137.13C232.322 137.997 233.23 138.611 234.266 138.856Z" fill="#FFDCD5"/>
<path d="M240.418 136.692L239.517 128.174L251.881 121.385L243.82 111.672L245.135 100.762L248.411 99.3647L248.512 99.4951C250.057 101.472 263.603 118.869 263.603 121.019C263.603 123.228 261.011 129.715 257.466 131.479C254.046 133.182 241.204 136.49 240.659 136.63L240.418 136.692Z" fill="#2F2E41"/>
<path d="M304.57 239H140.793C140.679 239 140.57 238.955 140.489 238.875C140.409 238.794 140.364 238.686 140.364 238.572C140.364 238.459 140.409 238.35 140.489 238.27C140.57 238.189 140.679 238.144 140.793 238.144H304.57C304.684 238.144 304.794 238.189 304.874 238.27C304.955 238.35 305 238.459 305 238.572C305 238.686 304.955 238.794 304.874 238.875C304.794 238.955 304.684 239 304.57 239Z" fill="#CCCCCC"/>
</g>
<defs>
<clipPath id="clip0_7047_1561">
<rect width="305" height="239" fill="white"/>
</clipPath>
</defs>
</svg>
